<svg width="1212" height="1212" viewBox="0 0 1212 1212" fill="none" xmlns="http://www.w3.org/2000/svg">
<rect width="1212" height="1212" fill="#1F2A39"/>
<path d="M678.75 351.2C661.75 346.3 644.05 356.2 639.15 373.2L511.15 821.2C506.25 838.2 516.15 855.9 533.15 860.8C550.15 865.7 567.85 855.8 572.75 838.8L700.75 390.8C705.65 373.8 695.75 356.1 678.75 351.2ZM743.35 487.3C730.85 499.8 730.85 520.1 743.35 532.6L816.75 606L743.35 679.4C730.85 691.9 730.85 712.2 743.35 724.7C755.85 737.2 776.15 737.2 788.65 724.7L884.65 628.7C897.15 616.2 897.15 595.9 884.65 583.4L788.65 487.4C776.15 474.9 755.85 474.9 743.35 487.4V487.3ZM468.65 487.3C456.15 474.8 435.85 474.8 423.35 487.3L327.35 583.3C314.85 595.8 314.85 616.1 327.35 628.6L423.35 724.6C435.85 737.1 456.15 737.1 468.65 724.6C481.15 712.1 481.15 691.8 468.65 679.3L395.25 606L468.55 532.6C481.05 520.1 481.05 499.8 468.55 487.3H468.65Z" fill="white"/>
</svg>
