<svg width="1212" height="1212" viewBox="0 0 1212 1212" fill="none" xmlns="http://www.w3.org/2000/svg">
<rect width="1212" height="1212" fill="#1F2A39"/>
<path d="M386.388 703.763C390.488 689.163 398.188 675.863 408.988 665.063L590.188 483.863L624.088 449.963C640.688 466.563 675.388 501.263 728.088 553.963L761.988 587.863L728.088 621.763L546.888 802.963C536.188 813.663 522.788 821.463 508.188 825.563L380.388 861.163C372.088 863.463 363.088 861.163 356.988 854.963C350.888 848.763 348.588 839.863 350.888 831.563L386.388 703.763ZM441.988 700.063C437.588 704.763 434.388 710.463 432.688 716.663L408.588 803.563L495.488 779.463C501.888 777.663 507.688 774.363 512.488 769.763L441.888 700.063H441.988ZM795.988 553.963C779.388 537.363 744.688 502.663 691.988 449.963L657.988 416.063C684.488 389.563 699.388 374.663 702.888 371.163C716.388 357.563 734.788 349.963 753.988 349.963C773.188 349.963 791.588 357.563 805.088 371.163L840.788 406.863C854.388 420.463 861.988 438.863 861.988 457.963C861.988 477.063 854.388 495.563 840.788 509.063C837.288 512.563 822.388 527.463 795.888 553.963H795.988Z" fill="white"/>
</svg>
