<svg width="1212" height="1212" viewBox="0 0 1212 1212" fill="none" xmlns="http://www.w3.org/2000/svg">
<rect width="1212" height="1212" fill="#1F2A39"/>
<path d="M405.7 549.7L436.6 580.6C442.6 586.6 450.7 590 459.2 590H480.7C489.2 590 497.3 593.4 503.3 599.4L532.6 628.7C538.6 634.7 542 642.8 542 651.3V688.8C542 697.3 545.4 705.4 551.4 711.4L564.7 724.7C570.7 730.7 574.1 738.8 574.1 747.3V766C574.1 783.7 588.4 798 606.1 798C623.8 798 638.1 783.7 638.1 766V763.3C638.1 754.8 641.5 746.7 647.5 740.7L692.8 695.4C698.8 689.4 702.2 681.3 702.2 672.8V638.1C702.2 620.4 687.9 606.1 670.2 606.1H587.5C579 606.1 570.9 602.7 564.9 596.7L548.9 580.7C544.7 576.5 542.3 570.7 542.3 564.7C542.3 552.2 552.4 542.1 564.9 542.1H599.6C612.1 542.1 622.2 532 622.2 519.5C622.2 513.5 619.8 507.7 615.6 503.5L595.9 483.8C592 480 590 475.1 590 470C590 464.9 592 460 595.7 456.3L613 439C618.8 433.2 622.1 425.3 622.1 417.1C622.1 409.9 619.7 403.4 615.7 398.2C612.5 398.1 609.3 398 606.1 398C510.7 398 430.4 462.2 405.8 549.7H405.7ZM814 606C814 571.4 805.6 538.8 790.6 510.2C784.2 511.1 777.9 514.1 772.7 519.3L759.3 532.7C753.3 538.7 749.9 546.8 749.9 555.3V590C749.9 607.7 764.2 622 781.9 622H806C808.5 622 811 621.7 813.3 621.2C813.7 616.2 813.8 611.1 813.8 606H814ZM350 606C350 464.6 464.6 350 606 350C747.4 350 862 464.6 862 606C862 747.4 747.4 862 606 862C464.6 862 350 747.4 350 606Z" fill="white"/>
</svg>
