<?xml version="1.0" encoding="UTF-8"?><svg xmlns="http://www.w3.org/2000/svg" viewBox="0 0 371.11 376.58"><defs><style>.e{fill:#bfdff1;}</style></defs><g id="a"/><g id="b"><g id="c"><g id="d"><path class="e" d="M350.37,228.14c-4.29-.3-8.71,.63-12.72,2.94-9.34,5.41-18.78,10.68-28.34,15.69-36.66,19.17-74.84,35.43-113.59,49.84-20.03,7.45-40.43,13.83-60.5,21.16-15.1,5.51-29.92,11.6-44.34,18.69-10.48,5.14-14.83,17.8-9.69,28.28,5.14,10.48,17.8,14.83,28.28,9.69,9.1-4.45,18.37-8.52,27.81-12.19,11.39-4.42,22.97-8.33,34.56-12.19,15.01-4.99,30.05-9.85,44.94-15.22,27.84-10.04,55.39-20.99,82.25-33.44,20.78-9.63,41.08-20.25,60.94-31.66,10.68-6.16,14.32-19.79,8.16-30.47-3.85-6.67-10.6-10.62-17.75-11.12Z"/><path class="e" d="M107.65,314.02c-5.71,.14-11.38,2.44-15.62,6.91-8.5,8.93-8.15,23.06,.78,31.56,1.87,.94,2.12,1.01,1.87,.94,.25,.08,.5,.18,.75,.25,.25,.07-.01-.01,1.13,.69,8.56,7.94,21.94,7.43,29.87-1.12,3.97-4.28,5.83-9.75,5.63-15.16-.2-5.4-2.47-10.72-6.75-14.69-.85-1.62-.93-1.83-.88-1.63-.06-.21-.1-.42-.16-.62-.06-.21-.01,0-.69-1-4.46-4.25-10.23-6.27-15.94-6.13Z"/><path class="e" d="M130.43,56.77c-4.12-.13-8.25-.13-12.37,.13-11.15,.68-22.24,3.57-31.78,9.5-5.81,3.61-11.1,8.15-15.75,13.16-14.24,15.34-21.55,35.47-24.19,55.97-.77,6.02-1.19,12.09-1.31,18.16-.08,4.06,.04,8.1,.06,12.16,.05,7.34,.04,14.72,.78,22.03,.7,6.86,2.07,13.57,4.19,20.12,4.11,12.71,10.44,24.5,16.87,36.16,4.12,7.46,8.13,14.99,12.44,22.34,6.24,10.63,19.9,14.21,30.53,7.97,10.63-6.24,14.21-19.93,7.97-30.56-5.02-8.52-9.72-17.24-14.47-25.91-3.29-6.01-6.53-12.08-9.09-18.44-1.28-3.17-2.43-6.42-3.19-9.75-1.58-6.93-1.53-14.18-1.59-21.25-.05-5.23-.24-10.43-.12-15.66,.35-15.04,2.81-32.08,13.31-43.66,2.43-2.68,5.3-5.37,8.62-6.91,3.49-1.61,7.45-2.05,11.25-2.25,6.91-.36,13.82,.28,20.72,.62,11.55,.58,23.54,.47,34.81,3.34,8.39,2.14,16.46,5.6,24.16,9.5,12.53,6.35,24.3,14.09,36.22,21.5,6.47,4.02,13.08,7.86,19.38,12.16,3.3,2.25,6.39,4.72,9.56,7.16,1.9,1.46,3.89,2.8,5.75,4.31,6.61,9.17,19.32,11.57,28.81,5.25,6.07-4.04,9.36-10.69,9.41-17.47,.03-4.07-1.11-8.17-3.53-11.81-2.31-3.44-5.08-6.4-8.28-9.03-2.04-1.68-4.29-3.13-6.38-4.75-3.8-2.94-7.53-5.88-11.5-8.59-6.79-4.64-13.87-8.81-20.84-13.16-8.77-5.47-17.45-11.11-26.38-16.31-14.34-8.36-29.43-15.77-45.53-20.06-15.1-4.03-30.73-4.24-46.22-5.28-4.11-.28-8.2-.55-12.31-.69Z"/><path class="e" d="M67.02,.08c-2.42-.13-4.84-.1-7.25,.09-4.12,.34-8.2,1.15-12.16,2.38C21.02,10.8,2.13,36.76,.18,64.2c-.87,12.24,1.4,25.02,7.56,35.72,9.5,16.49,27.81,28.2,46.91,27.91,2.73-.04,5.48-.35,8.22-.91,3.46-.7,6.83-1.81,10.03-3.31,3.21-1.51,6.16-3.43,8.84-5.75,2.96-2.55,5.52-5.54,8.09-8.47,7.19-8.18,13.95-16.83,19.5-26.22,1.01-1.71,1.91-3.48,2.81-5.25,.38-.39,.83-.68,1.19-1.09,.2-.24,.47-.43,.59-.72,1.39-3.31,2.88-6.61,4.16-9.97,.18-.48,.16-.99,.22-1.5,.15-1.41,.22-2.5,.25-3.91,.09-4.19-.41-8.39-1.22-12.5-1.65-8.4-4.92-16.51-9.44-23.78-4.51-7.27-10.36-13.62-17.91-17.78-4.91-2.71-10.24-4.66-15.75-5.72-2.38-.46-4.8-.75-7.22-.88Zm-1.38,42.53c1.01,.12,1.97,.39,2.91,.78,.4,.17,.81,.39,1.22,.56,.05,.05,.08,.11,.12,.16,2.22,2.29,3.77,5.62,4.84,8.78-.3,.57-.65,1.11-.91,1.72-.45,1.1-.03,.46-.47,1.09-.17,.25-.24,.57-.38,.84-.29,.61-.62,1.34-.94,1.94-.79,1.49-1.67,2.95-2.56,4.38-2.59,4.13-5.53,8.03-8.59,11.81-1.76,2.18-3.59,4.33-5.44,6.44-.66,.75-1.3,1.48-1.97,2.22-1.18-.04-2.45-.62-3.38-1.19-3.2-1.96-5.07-4.76-5.88-8.38-2-9.01,1.27-18.63,7.75-25.09,3.5-3.49,8.5-6.67,13.66-6.06Z"/><path class="e" d="M99.71,237.11c-1.4,.03-2.83,.21-4.25,.53-3.42,.78-6.7,1.9-9.78,3.59-7.98,4.38-13.65,11.79-16.44,20.41-2.22,6.86-2.48,14.04-2.56,21.19-.06,4.96,0,9.93,.72,14.84,.56,3.82,1.51,7.58,2.69,11.25,1.63,5.1,3.76,10.01,6.19,14.78,4.07,8.01,9.09,15.48,13.84,23.09,4.12,6.51,11.06,10.19,18.22,10.41,4.3,.13,8.65-1,12.56-3.47,6.51-4.12,10.19-11.03,10.41-18.19,.13-4.3-1-8.69-3.47-12.59-3.68-5.75-7.49-11.44-10.94-17.34-2.64-4.51-5.2-9.22-6.53-14.31-.66-2.51-.71-5.18-.81-7.75-.09-2.18,0-4.34,.09-6.5,8.45-4.27,13.28-13.82,11.09-23.47-2.26-9.96-11.2-16.67-21.03-16.47Z"/><path class="e" d="M300.59,122.83c-1.83-.07-3.66,0-5.47,.28-2.05,.31-3.72,.77-5.66,1.47-4.07,1.48-7.49,3.94-10.94,6.47-5.89,4.31-8.91,11.1-8.66,17.88,.15,4.07,1.48,8.12,4.06,11.66,5.38,7.35,14.6,10.15,22.88,7.78,.58,.73,1.19,1.44,1.75,2.19,3.53,4.75,6.27,9.85,7.84,15.56,1.17,4.24,1.87,8.62,2.5,12.97,.54,3.73,1.17,7.47,1.5,11.22,.38,4.22,.3,8.45,.44,12.69,.09,2.97,.29,5.95,.59,8.91,.1,.98,.19,1.93,.25,2.91,0,.16,.03,.34,.03,.5-.08,.24-.16,.48-.25,.72-.28,.73-.6,1.48-.94,2.19-1.04,2.21-2.28,4.31-3.53,6.41-6.27,10.61-2.74,24.29,7.88,30.56,10.61,6.27,24.29,2.77,30.56-7.84,4.17-7.11,8.16-14.68,9.88-22.81,.72-3.43,.97-6.93,.87-10.44-.08-2.99-.51-5.96-.78-8.94-.17-1.85-.23-3.71-.31-5.56-.21-4.65-.4-9.31-.94-13.94-.52-4.53-1.36-9.04-2.16-13.53-1.43-8.09-3.17-16.15-6.12-23.84-2.41-6.29-5.63-12.19-9.38-17.78-2.9-4.32-6.16-8.41-9.56-12.34-2.37-2.74-4.78-5.39-7.56-7.72-5.27-4.4-11.87-7.31-18.78-7.59Z"/><path class="e" d="M289.27,127.3c-5.4,.35-10.65,2.77-14.5,7.16-3.59,4.08-6.82,8.45-10.78,12.19-4.23,3.99-8.88,7.54-13.41,11.19-3.3,2.66-6.56,5.39-9.72,8.22-11.67,10.44-21.78,22.75-34.66,31.81-7.04,4.96-15.02,8.52-22.62,12.5-14.3,7.48-29.05,13.96-44.44,18.88-5.67,1.81-11.42,3.39-17.22,4.75-2.63,.61-5.28,1.12-7.91,1.75-4.78,1.14-9.39,2.92-14.22,3.84-10.59,2.04-17.98,11.24-18.09,21.62-.02,1.48,.11,2.99,.41,4.5,2.04,10.59,11.27,17.98,21.66,18.09,1.48,.02,2.99-.11,4.5-.41,2.49-.49,4.96-1.03,7.41-1.72,2.93-.83,5.79-1.88,8.75-2.59,3.74-.9,7.49-1.65,11.22-2.59,5.76-1.46,11.48-3.1,17.12-4.94,17.87-5.8,34.97-13.59,51.44-22.59,9.27-5.07,18.74-9.76,27.28-16.03,8.17-6,15.51-13.03,22.62-20.22,5.01-5.06,9.91-10.3,15.19-15.09,7.7-7.01,16.22-13.08,23.78-20.25,2.05-1.95,4.03-3.95,5.91-6.06,2.6-2.93,4.98-6.05,7.56-9,7.69-8.77,6.84-22.12-1.94-29.81-4.39-3.85-9.95-5.54-15.34-5.19Z"/></g></g></g></svg>