<svg width="704" height="1025" viewBox="0 0 704 1025" fill="none" xmlns="http://www.w3.org/2000/svg">
<rect x="12" y="831" width="680" height="182" rx="30" fill="white" stroke="#3A5F3A" stroke-width="24"/>
<path d="M235.379 905V870H250.329C252.763 870 254.813 870.383 256.479 871.15C258.146 871.883 259.413 872.933 260.279 874.3C261.179 875.633 261.629 877.217 261.629 879.05C261.629 880.817 261.246 882.3 260.479 883.5C259.713 884.7 258.696 885.617 257.429 886.25C256.196 886.883 254.829 887.267 253.329 887.4L254.129 886.8C255.763 886.867 257.196 887.3 258.429 888.1C259.663 888.9 260.629 889.95 261.329 891.25C262.063 892.517 262.429 893.917 262.429 895.45C262.429 897.35 261.979 899.017 261.079 900.45C260.179 901.883 258.863 903 257.129 903.8C255.396 904.6 253.296 905 250.829 905H235.379ZM242.879 898.9H249.579C251.246 898.9 252.529 898.533 253.429 897.8C254.363 897.033 254.829 895.933 254.829 894.5C254.829 893.067 254.346 891.95 253.379 891.15C252.446 890.35 251.146 889.95 249.479 889.95H242.879V898.9ZM242.879 884.4H249.029C250.629 884.4 251.846 884.033 252.679 883.3C253.546 882.567 253.979 881.533 253.979 880.2C253.979 878.867 253.546 877.833 252.679 877.1C251.846 876.333 250.613 875.95 248.979 875.95H242.879V884.4ZM271.201 905.25C269.835 905.25 268.718 904.85 267.851 904.05C267.018 903.217 266.601 902.217 266.601 901.05C266.601 899.85 267.018 898.85 267.851 898.05C268.718 897.217 269.835 896.8 271.201 896.8C272.535 896.8 273.618 897.217 274.451 898.05C275.285 898.85 275.701 899.85 275.701 901.05C275.701 902.217 275.285 903.217 274.451 904.05C273.618 904.85 272.535 905.25 271.201 905.25ZM292.18 916.6C289.713 916.6 287.58 916.3 285.78 915.7C283.98 915.133 282.58 914.267 281.58 913.1C280.613 911.933 280.13 910.467 280.13 908.7C280.13 907.433 280.463 906.25 281.13 905.15C281.83 904.05 282.813 903.083 284.08 902.25C285.347 901.383 286.863 900.667 288.63 900.1L291.13 903.9C289.663 904.333 288.563 904.9 287.83 905.6C287.13 906.3 286.78 907.083 286.78 907.95C286.78 908.617 287.013 909.183 287.48 909.65C287.947 910.117 288.58 910.467 289.38 910.7C290.213 910.933 291.13 911.05 292.13 911.05C293.097 911.05 293.93 910.933 294.63 910.7C295.363 910.467 295.93 910.117 296.33 909.65C296.763 909.217 296.98 908.683 296.98 908.05C296.98 907.217 296.697 906.55 296.13 906.05C295.563 905.55 294.397 905.233 292.63 905.1C290.997 904.967 289.513 904.783 288.18 904.55C286.88 904.283 285.713 903.967 284.68 903.6C283.68 903.233 282.813 902.833 282.08 902.4C281.347 901.967 280.78 901.533 280.38 901.1V899.95L285.88 893.9L291.03 895.5L284.38 902.25L286.68 898.45C287.013 898.65 287.363 898.85 287.73 899.05C288.097 899.217 288.547 899.367 289.08 899.5C289.613 899.633 290.28 899.767 291.08 899.9C291.88 900 292.913 900.117 294.18 900.25C296.347 900.45 298.13 900.867 299.53 901.5C300.963 902.1 302.013 902.933 302.68 904C303.38 905.067 303.73 906.367 303.73 907.9C303.73 909.4 303.313 910.817 302.48 912.15C301.647 913.483 300.38 914.55 298.68 915.35C296.98 916.183 294.813 916.6 292.18 916.6ZM292.23 897.7C290.13 897.7 288.313 897.283 286.78 896.45C285.247 895.617 284.063 894.517 283.23 893.15C282.397 891.75 281.98 890.183 281.98 888.45C281.98 886.75 282.397 885.217 283.23 883.85C284.063 882.45 285.247 881.333 286.78 880.5C288.313 879.633 290.13 879.2 292.23 879.2C294.363 879.2 296.197 879.633 297.73 880.5C299.263 881.333 300.43 882.45 301.23 883.85C302.03 885.217 302.43 886.75 302.43 888.45C302.43 890.183 302.03 891.75 301.23 893.15C300.43 894.517 299.263 895.617 297.73 896.45C296.197 897.283 294.363 897.7 292.23 897.7ZM292.23 892.05C293.363 892.05 294.297 891.75 295.03 891.15C295.763 890.55 296.13 889.667 296.13 888.5C296.13 887.333 295.763 886.45 295.03 885.85C294.297 885.25 293.363 884.95 292.23 884.95C291.097 884.95 290.147 885.25 289.38 885.85C288.647 886.45 288.28 887.333 288.28 888.5C288.28 889.667 288.647 890.55 289.38 891.15C290.147 891.75 291.097 892.05 292.23 892.05ZM296.43 884.95L295.33 879.8H305.78V884.05L296.43 884.95ZM322.875 905.6C320.275 905.6 317.991 905.067 316.025 904C314.058 902.9 312.508 901.383 311.375 899.45C310.275 897.483 309.725 895.233 309.725 892.7C309.725 890.1 310.275 887.783 311.375 885.75C312.475 883.717 314.008 882.117 315.975 880.95C317.941 879.783 320.225 879.2 322.825 879.2C325.358 879.2 327.575 879.75 329.475 880.85C331.375 881.95 332.858 883.45 333.925 885.35C335.025 887.217 335.575 889.383 335.575 891.85C335.575 892.183 335.558 892.567 335.525 893C335.525 893.4 335.491 893.817 335.425 894.25H315.075V889.9H327.925C327.858 888.5 327.341 887.383 326.375 886.55C325.441 885.683 324.275 885.25 322.875 885.25C321.808 885.25 320.841 885.5 319.975 886C319.108 886.5 318.408 887.25 317.875 888.25C317.375 889.25 317.125 890.517 317.125 892.05V893.55C317.125 894.717 317.341 895.75 317.775 896.65C318.241 897.55 318.891 898.25 319.725 898.75C320.591 899.25 321.608 899.5 322.775 899.5C323.875 899.5 324.775 899.283 325.475 898.85C326.208 898.383 326.775 897.8 327.175 897.1H334.825C334.358 898.7 333.558 900.15 332.425 901.45C331.291 902.717 329.908 903.733 328.275 904.5C326.641 905.233 324.841 905.6 322.875 905.6ZM353.19 905.6C350.757 905.6 348.573 905.033 346.64 903.9C344.707 902.767 343.173 901.217 342.04 899.25C340.907 897.25 340.34 894.983 340.34 892.45C340.34 889.85 340.907 887.567 342.04 885.6C343.173 883.6 344.707 882.033 346.64 880.9C348.607 879.767 350.79 879.2 353.19 879.2C355.657 879.2 357.857 879.767 359.79 880.9C361.723 882.033 363.257 883.6 364.39 885.6C365.523 887.567 366.09 889.833 366.09 892.4C366.09 894.967 365.523 897.25 364.39 899.25C363.257 901.217 361.723 902.767 359.79 903.9C357.857 905.033 355.657 905.6 353.19 905.6ZM353.19 899.1C354.19 899.1 355.073 898.85 355.84 898.35C356.64 897.85 357.273 897.1 357.74 896.1C358.207 895.1 358.44 893.867 358.44 892.4C358.44 890.933 358.207 889.7 357.74 888.7C357.273 887.7 356.657 886.95 355.89 886.45C355.123 885.95 354.24 885.7 353.24 885.7C352.24 885.7 351.34 885.95 350.54 886.45C349.773 886.95 349.157 887.7 348.69 888.7C348.223 889.7 347.99 890.933 347.99 892.4C347.99 893.867 348.223 895.1 348.69 896.1C349.157 897.1 349.773 897.85 350.54 898.35C351.34 898.85 352.223 899.1 353.19 899.1ZM367.152 916V909.65H369.202C370.202 909.65 370.918 909.433 371.352 909C371.785 908.6 372.002 907.95 372.002 907.05V879.8H379.452V907C379.452 909.2 379.068 910.95 378.302 912.25C377.568 913.583 376.518 914.533 375.152 915.1C373.785 915.7 372.168 916 370.302 916H367.152ZM375.752 876.9C374.418 876.9 373.335 876.517 372.502 875.75C371.668 874.983 371.252 874.017 371.252 872.85C371.252 871.65 371.668 870.667 372.502 869.9C373.335 869.133 374.435 868.75 375.802 868.75C377.135 868.75 378.218 869.133 379.052 869.9C379.885 870.667 380.302 871.65 380.302 872.85C380.302 874.017 379.885 874.983 379.052 875.75C378.218 876.517 377.118 876.9 375.752 876.9ZM396.512 905.6C394.145 905.6 392.095 905.233 390.362 904.5C388.662 903.733 387.312 902.7 386.312 901.4C385.345 900.1 384.795 898.633 384.662 897H392.112C392.245 897.567 392.478 898.083 392.812 898.55C393.178 898.983 393.662 899.333 394.262 899.6C394.895 899.833 395.595 899.95 396.362 899.95C397.195 899.95 397.862 899.85 398.362 899.65C398.895 899.417 399.295 899.117 399.562 898.75C399.828 898.383 399.962 898 399.962 897.6C399.962 896.967 399.762 896.483 399.362 896.15C398.995 895.817 398.445 895.55 397.712 895.35C396.978 895.117 396.095 894.9 395.062 894.7C393.862 894.433 392.662 894.133 391.462 893.8C390.295 893.433 389.245 892.983 388.312 892.45C387.412 891.917 386.678 891.233 386.112 890.4C385.578 889.533 385.312 888.483 385.312 887.25C385.312 885.75 385.728 884.4 386.562 883.2C387.395 881.967 388.595 881 390.162 880.3C391.728 879.567 393.628 879.2 395.862 879.2C399.028 879.2 401.512 879.9 403.312 881.3C405.112 882.7 406.178 884.583 406.512 886.95H399.512C399.312 886.283 398.895 885.783 398.262 885.45C397.628 885.083 396.828 884.9 395.862 884.9C394.762 884.9 393.928 885.083 393.362 885.45C392.795 885.817 392.512 886.3 392.512 886.9C392.512 887.3 392.695 887.667 393.062 888C393.462 888.3 394.028 888.567 394.762 888.8C395.495 889.033 396.395 889.267 397.462 889.5C399.495 889.933 401.245 890.4 402.712 890.9C404.212 891.4 405.378 892.133 406.212 893.1C407.045 894.033 407.445 895.4 407.412 897.2C407.445 898.833 407.012 900.283 406.112 901.55C405.245 902.817 403.995 903.817 402.362 904.55C400.728 905.25 398.778 905.6 396.512 905.6ZM425.114 905.6C422.68 905.6 420.497 905.033 418.564 903.9C416.63 902.767 415.097 901.217 413.964 899.25C412.83 897.25 412.264 894.983 412.264 892.45C412.264 889.85 412.83 887.567 413.964 885.6C415.097 883.6 416.63 882.033 418.564 880.9C420.53 879.767 422.714 879.2 425.114 879.2C427.58 879.2 429.78 879.767 431.714 880.9C433.647 882.033 435.18 883.6 436.314 885.6C437.447 887.567 438.014 889.833 438.014 892.4C438.014 894.967 437.447 897.25 436.314 899.25C435.18 901.217 433.647 902.767 431.714 903.9C429.78 905.033 427.58 905.6 425.114 905.6ZM425.114 899.1C426.114 899.1 426.997 898.85 427.764 898.35C428.564 897.85 429.197 897.1 429.664 896.1C430.13 895.1 430.364 893.867 430.364 892.4C430.364 890.933 430.13 889.7 429.664 888.7C429.197 887.7 428.58 886.95 427.814 886.45C427.047 885.95 426.164 885.7 425.164 885.7C424.164 885.7 423.264 885.95 422.464 886.45C421.697 886.95 421.08 887.7 420.614 888.7C420.147 889.7 419.914 890.933 419.914 892.4C419.914 893.867 420.147 895.1 420.614 896.1C421.08 897.1 421.697 897.85 422.464 898.35C423.264 898.85 424.147 899.1 425.114 899.1ZM443.775 905V879.8H450.325L450.925 883.85C451.692 882.45 452.775 881.333 454.175 880.5C455.575 879.633 457.275 879.2 459.275 879.2C461.375 879.2 463.142 879.65 464.575 880.55C466.009 881.45 467.092 882.75 467.825 884.45C468.592 886.117 468.975 888.167 468.975 890.6V905H461.525V891.3C461.525 889.467 461.125 888.05 460.325 887.05C459.559 886.017 458.325 885.5 456.625 885.5C455.625 885.5 454.709 885.75 453.875 886.25C453.075 886.717 452.442 887.4 451.975 888.3C451.509 889.2 451.275 890.283 451.275 891.55V905H443.775ZM79.5242 965L85.6742 930H90.6742L103.774 957.05L108.524 930H113.524L107.374 965H102.374L89.2742 937.95L84.5242 965H79.5242ZM125.879 965.6C123.713 965.6 121.829 965.133 120.229 964.2C118.663 963.267 117.463 961.95 116.629 960.25C115.829 958.55 115.496 956.567 115.629 954.3C115.696 952.167 116.113 950.2 116.879 948.4C117.679 946.567 118.729 944.967 120.029 943.6C121.363 942.233 122.913 941.167 124.679 940.4C126.446 939.6 128.379 939.2 130.479 939.2C132.746 939.2 134.646 939.667 136.179 940.6C137.713 941.533 138.829 942.783 139.529 944.35C140.263 945.917 140.579 947.667 140.479 949.6C140.479 950.2 140.413 950.867 140.279 951.6C140.179 952.333 140.046 953 139.879 953.6H119.329L119.929 950.05H135.579C135.746 948.617 135.596 947.417 135.129 946.45C134.696 945.45 134.013 944.683 133.079 944.15C132.179 943.617 131.096 943.35 129.829 943.35C128.463 943.35 127.163 943.667 125.929 944.3C124.696 944.9 123.629 945.8 122.729 947C121.829 948.167 121.213 949.65 120.879 951.45L120.629 952.85C120.329 954.55 120.379 956.05 120.779 957.35C121.179 958.65 121.879 959.667 122.879 960.4C123.879 961.1 125.113 961.45 126.579 961.45C128.179 961.45 129.563 961.1 130.729 960.4C131.896 959.667 132.829 958.717 133.529 957.55H138.529C137.796 959.083 136.813 960.467 135.579 961.7C134.346 962.9 132.913 963.85 131.279 964.55C129.646 965.25 127.846 965.6 125.879 965.6ZM143.883 965L148.283 939.8H153.283L148.883 965H143.883ZM152.233 935.1C151.267 935.1 150.467 934.8 149.833 934.2C149.233 933.6 148.933 932.833 148.933 931.9C148.933 931 149.233 930.25 149.833 929.65C150.467 929.05 151.267 928.75 152.233 928.75C153.167 928.75 153.95 929.05 154.583 929.65C155.217 930.217 155.533 930.967 155.533 931.9C155.533 932.833 155.2 933.6 154.533 934.2C153.9 934.8 153.133 935.1 152.233 935.1ZM163.831 976.6C161.664 976.6 159.781 976.317 158.181 975.75C156.614 975.217 155.414 974.4 154.581 973.3C153.714 972.233 153.314 970.917 153.381 969.35C153.448 968.15 153.764 967.033 154.331 966C154.898 964.967 155.714 964.017 156.781 963.15C157.848 962.283 159.181 961.5 160.781 960.8L163.181 963C161.514 963.667 160.281 964.483 159.481 965.45C158.714 966.417 158.314 967.433 158.281 968.5C158.248 969.367 158.464 970.117 158.931 970.75C159.431 971.383 160.148 971.85 161.081 972.15C162.048 972.483 163.181 972.65 164.481 972.65C166.548 972.65 168.264 972.2 169.631 971.3C170.998 970.4 171.714 969.183 171.781 967.65C171.814 966.683 171.481 965.85 170.781 965.15C170.114 964.483 168.731 964.1 166.631 964C165.031 963.867 163.614 963.683 162.381 963.45C161.181 963.217 160.131 962.95 159.231 962.65C158.364 962.317 157.614 961.95 156.981 961.55C156.348 961.117 155.814 960.65 155.381 960.15L155.581 959L161.281 954.2L164.981 955.6L158.781 960.5L160.181 958.05C160.581 958.317 160.981 958.567 161.381 958.8C161.781 959.033 162.248 959.25 162.781 959.45C163.348 959.617 164.031 959.767 164.831 959.9C165.631 960.033 166.631 960.133 167.831 960.2C170.098 960.367 171.881 960.783 173.181 961.45C174.481 962.083 175.398 962.9 175.931 963.9C176.464 964.9 176.698 966.017 176.631 967.25C176.564 969.017 175.981 970.6 174.881 972C173.814 973.4 172.331 974.517 170.431 975.35C168.564 976.183 166.364 976.6 163.831 976.6ZM167.131 957.25C165.231 957.25 163.631 956.917 162.331 956.25C161.031 955.55 160.064 954.617 159.431 953.45C158.831 952.283 158.564 950.95 158.631 949.45C158.698 947.55 159.248 945.833 160.281 944.3C161.348 942.733 162.748 941.5 164.481 940.6C166.214 939.667 168.164 939.2 170.331 939.2C172.231 939.2 173.814 939.55 175.081 940.25C176.381 940.95 177.331 941.883 177.931 943.05C178.564 944.217 178.848 945.533 178.781 947C178.681 948.933 178.114 950.683 177.081 952.25C176.081 953.783 174.714 955 172.981 955.9C171.281 956.8 169.331 957.25 167.131 957.25ZM167.831 953.3C169.664 953.3 171.164 952.767 172.331 951.7C173.498 950.633 174.114 949.217 174.181 947.45C174.281 946.05 173.914 945 173.081 944.3C172.281 943.567 171.131 943.2 169.631 943.2C167.831 943.2 166.331 943.733 165.131 944.8C163.931 945.867 163.298 947.283 163.231 949.05C163.131 950.417 163.498 951.467 164.331 952.2C165.164 952.933 166.331 953.3 167.831 953.3ZM173.681 943.7L173.131 939.8H183.481L182.831 943.2L173.681 943.7ZM183.963 965L190.263 929H195.263L192.663 943.9C193.73 942.433 195.063 941.283 196.663 940.45C198.296 939.617 200.013 939.2 201.813 939.2C203.813 939.2 205.463 939.617 206.763 940.45C208.063 941.25 208.946 942.467 209.413 944.1C209.913 945.7 209.946 947.717 209.513 950.15L206.913 965H201.913L204.463 950.65C204.863 948.317 204.663 946.55 203.863 945.35C203.063 944.117 201.68 943.5 199.713 943.5C198.38 943.5 197.13 943.817 195.963 944.45C194.796 945.083 193.813 946.017 193.013 947.25C192.213 948.45 191.646 949.917 191.313 951.65L188.963 965H183.963ZM227.056 965.6C225.69 965.6 224.456 965.383 223.356 964.95C222.29 964.517 221.39 963.967 220.656 963.3C219.956 962.6 219.406 961.867 219.006 961.1L217.856 965H213.356L219.706 929H224.706L222.156 943.5C223.156 942.3 224.423 941.283 225.956 940.45C227.49 939.617 229.273 939.2 231.306 939.2C233.506 939.2 235.356 939.7 236.856 940.7C238.39 941.7 239.54 943.067 240.306 944.8C241.106 946.5 241.456 948.45 241.356 950.65C241.256 952.75 240.823 954.717 240.056 956.55C239.323 958.35 238.306 959.933 237.006 961.3C235.706 962.633 234.206 963.683 232.506 964.45C230.84 965.217 229.023 965.6 227.056 965.6ZM227.006 961.25C228.706 961.25 230.223 960.833 231.556 960C232.923 959.133 234.006 957.95 234.806 956.45C235.64 954.917 236.106 953.183 236.206 951.25C236.273 949.75 236.056 948.417 235.556 947.25C235.056 946.083 234.306 945.183 233.306 944.55C232.34 943.883 231.156 943.55 229.756 943.55C228.023 943.55 226.473 944 225.106 944.9C223.773 945.767 222.69 946.967 221.856 948.5C221.023 950.033 220.573 951.767 220.506 953.7C220.406 955.2 220.606 956.533 221.106 957.7C221.64 958.833 222.406 959.717 223.406 960.35C224.406 960.95 225.606 961.25 227.006 961.25ZM256.599 965.6C254.399 965.6 252.483 965.1 250.849 964.1C249.216 963.1 247.966 961.733 247.099 960C246.266 958.233 245.916 956.233 246.049 954C246.149 951.867 246.583 949.9 247.349 948.1C248.149 946.3 249.216 944.75 250.549 943.45C251.916 942.117 253.466 941.083 255.199 940.35C256.966 939.583 258.849 939.2 260.849 939.2C263.049 939.2 264.966 939.7 266.599 940.7C268.233 941.667 269.466 943.017 270.299 944.75C271.166 946.45 271.549 948.45 271.449 950.75C271.349 952.883 270.899 954.85 270.099 956.65C269.333 958.45 268.266 960.017 266.899 961.35C265.566 962.683 264.016 963.733 262.249 964.5C260.516 965.233 258.633 965.6 256.599 965.6ZM257.299 961.3C258.933 961.3 260.399 960.867 261.699 960C263.033 959.133 264.116 957.917 264.949 956.35C265.783 954.783 266.233 952.983 266.299 950.95C266.399 949.35 266.183 948 265.649 946.9C265.149 945.8 264.416 944.967 263.449 944.4C262.483 943.8 261.399 943.5 260.199 943.5C258.599 943.5 257.133 943.95 255.799 944.85C254.499 945.717 253.433 946.933 252.599 948.5C251.766 950.033 251.316 951.817 251.249 953.85C251.149 955.45 251.349 956.8 251.849 957.9C252.383 959 253.116 959.85 254.049 960.45C255.016 961.017 256.099 961.3 257.299 961.3ZM284.177 965.6C282.077 965.6 280.377 965.15 279.077 964.25C277.811 963.317 276.944 962.033 276.477 960.4C276.044 958.733 276.027 956.817 276.427 954.65L279.077 939.8H284.027L281.477 954.2C281.111 956.5 281.277 958.267 281.977 959.5C282.677 960.733 284.061 961.35 286.127 961.35C287.461 961.35 288.694 961.05 289.827 960.45C290.994 959.817 291.994 958.933 292.827 957.8C293.661 956.633 294.227 955.217 294.527 953.55L296.977 939.8H301.977L297.527 965H293.077L293.427 960.7C292.427 962.233 291.111 963.433 289.477 964.3C287.877 965.167 286.111 965.6 284.177 965.6ZM304.422 965L308.822 939.8H313.322L312.972 944.35C313.739 943.25 314.639 942.333 315.672 941.6C316.705 940.833 317.872 940.25 319.172 939.85C320.505 939.417 321.922 939.2 323.422 939.2L322.522 944.5H320.772C319.672 944.5 318.639 944.617 317.672 944.85C316.705 945.083 315.822 945.5 315.022 946.1C314.222 946.667 313.522 947.417 312.922 948.35C312.355 949.283 311.955 950.467 311.722 951.9L309.422 965H304.422ZM333.363 965.6C331.129 965.6 329.263 965.233 327.763 964.5C326.263 963.767 325.163 962.75 324.463 961.45C323.763 960.117 323.479 958.583 323.613 956.85H328.613C328.613 957.717 328.779 958.5 329.113 959.2C329.479 959.9 330.063 960.467 330.863 960.9C331.663 961.333 332.713 961.55 334.013 961.55C335.113 961.55 336.063 961.383 336.863 961.05C337.663 960.717 338.279 960.267 338.713 959.7C339.179 959.1 339.429 958.4 339.463 957.6C339.496 956.833 339.313 956.233 338.913 955.8C338.513 955.333 337.913 954.967 337.113 954.7C336.346 954.433 335.429 954.2 334.363 954C333.296 953.8 332.263 953.533 331.263 953.2C330.263 952.833 329.379 952.383 328.613 951.85C327.879 951.317 327.296 950.667 326.863 949.9C326.463 949.133 326.296 948.217 326.363 947.15C326.429 945.617 326.913 944.267 327.813 943.1C328.746 941.9 329.996 940.95 331.563 940.25C333.163 939.55 334.963 939.2 336.963 939.2C339.763 939.2 341.946 939.883 343.513 941.25C345.113 942.583 345.846 944.45 345.713 946.85H340.863C340.896 945.75 340.513 944.883 339.713 944.25C338.913 943.617 337.796 943.3 336.363 943.3C334.929 943.3 333.746 943.617 332.813 944.25C331.913 944.85 331.446 945.617 331.413 946.55C331.379 947.183 331.546 947.733 331.913 948.2C332.313 948.633 332.896 949 333.663 949.3C334.463 949.567 335.429 949.817 336.563 950.05C337.729 950.283 338.813 950.583 339.813 950.95C340.813 951.283 341.679 951.717 342.413 952.25C343.179 952.75 343.746 953.4 344.113 954.2C344.513 954.967 344.679 955.917 344.613 957.05C344.546 958.783 344.013 960.3 343.013 961.6C342.013 962.867 340.679 963.85 339.013 964.55C337.346 965.25 335.463 965.6 333.363 965.6ZM351.795 965.25C350.862 965.25 350.078 964.95 349.445 964.35C348.845 963.75 348.545 963 348.545 962.1C348.545 961.2 348.845 960.45 349.445 959.85C350.078 959.217 350.862 958.9 351.795 958.9C352.762 958.9 353.545 959.217 354.145 959.85C354.745 960.45 355.045 961.2 355.045 962.1C355.045 963 354.745 963.75 354.145 964.35C353.545 964.95 352.762 965.25 351.795 965.25ZM355.245 945.55C354.312 945.55 353.528 945.25 352.895 944.65C352.295 944.05 351.995 943.3 351.995 942.4C351.995 941.5 352.295 940.75 352.895 940.15C353.528 939.517 354.312 939.2 355.245 939.2C356.212 939.2 356.995 939.517 357.595 940.15C358.195 940.75 358.495 941.5 358.495 942.4C358.495 943.3 358.195 944.05 357.595 944.65C356.995 945.25 356.212 945.55 355.245 945.55ZM372.753 972.9L381.303 924.45H391.403L390.703 928.55H385.253L378.153 968.75H383.603L382.853 972.9H372.753ZM402.002 941.9L408.852 930H412.352L407.502 941.9H402.002ZM393.402 941.9L400.252 930H403.752L398.852 941.9H393.402ZM408.962 965L428.013 930H433.513L440.113 965H434.863L429.713 935.8L414.263 965H408.962ZM415.663 956.35L417.663 952.4H435.413L436.063 956.35H415.663ZM443.999 971.6L444.799 966.85H471.449L470.649 971.6H443.999ZM487.67 965C485.903 965 484.47 964.717 483.37 964.15C482.27 963.583 481.537 962.717 481.17 961.55C480.803 960.35 480.77 958.817 481.07 956.95L483.37 944.05H479.27L480.07 939.8H484.12L485.87 933.5H490.27L489.12 939.8H496.27L495.52 944.05H488.42L486.07 956.95C485.837 958.417 485.987 959.417 486.52 959.95C487.053 960.483 487.987 960.75 489.32 960.75H492.57L491.82 965H487.67ZM508.406 965.6C506.206 965.6 504.289 965.1 502.656 964.1C501.023 963.1 499.773 961.733 498.906 960C498.073 958.233 497.723 956.233 497.856 954C497.956 951.867 498.389 949.9 499.156 948.1C499.956 946.3 501.023 944.75 502.356 943.45C503.723 942.117 505.273 941.083 507.006 940.35C508.773 939.583 510.656 939.2 512.656 939.2C514.856 939.2 516.773 939.7 518.406 940.7C520.039 941.667 521.273 943.017 522.106 944.75C522.973 946.45 523.356 948.45 523.256 950.75C523.156 952.883 522.706 954.85 521.906 956.65C521.139 958.45 520.073 960.017 518.706 961.35C517.373 962.683 515.823 963.733 514.056 964.5C512.323 965.233 510.439 965.6 508.406 965.6ZM509.106 961.3C510.739 961.3 512.206 960.867 513.506 960C514.839 959.133 515.923 957.917 516.756 956.35C517.589 954.783 518.039 952.983 518.106 950.95C518.206 949.35 517.989 948 517.456 946.9C516.956 945.8 516.223 944.967 515.256 944.4C514.289 943.8 513.206 943.5 512.006 943.5C510.406 943.5 508.939 943.95 507.606 944.85C506.306 945.717 505.239 946.933 504.406 948.5C503.573 950.033 503.123 951.817 503.056 953.85C502.956 955.45 503.156 956.8 503.656 957.9C504.189 959 504.923 959.85 505.856 960.45C506.823 961.017 507.906 961.3 509.106 961.3ZM525.884 971.6L526.684 966.85H553.334L552.534 971.6H525.884ZM559.505 965L565.655 930H578.655C580.888 930 582.721 930.333 584.155 931C585.588 931.667 586.638 932.6 587.305 933.8C587.971 934.967 588.271 936.317 588.205 937.85C588.138 939.65 587.655 941.233 586.755 942.6C585.855 943.967 584.688 945.05 583.255 945.85C581.821 946.65 580.205 947.133 578.405 947.3L579.205 946.8C580.605 946.833 581.821 947.183 582.855 947.85C583.921 948.517 584.738 949.4 585.305 950.5C585.871 951.6 586.121 952.867 586.055 954.3C585.988 956.4 585.355 958.267 584.155 959.9C582.988 961.5 581.421 962.75 579.455 963.65C577.521 964.55 575.321 965 572.855 965H559.505ZM565.205 960.95H572.955C574.555 960.95 575.955 960.667 577.155 960.1C578.355 959.533 579.288 958.733 579.955 957.7C580.655 956.667 581.038 955.45 581.105 954.05C581.171 952.483 580.655 951.25 579.555 950.35C578.455 949.417 576.921 948.95 574.955 948.95H567.305L565.205 960.95ZM568.055 945.1H575.405C577.638 945.1 579.438 944.533 580.805 943.4C582.171 942.233 582.888 940.667 582.955 938.7C582.988 937.733 582.805 936.9 582.405 936.2C582.005 935.5 581.371 934.967 580.505 934.6C579.671 934.2 578.571 934 577.205 934H569.955L568.055 945.1ZM602.316 930.05L595.466 941.95H591.966L596.866 930.05H602.316ZM610.916 930.05L604.066 941.95H600.566L605.466 930.05H610.916ZM627.227 924.45L618.677 972.9H608.527L609.277 968.8H614.727L621.777 928.6H616.377L617.077 924.45H627.227Z" fill="#3A5F3A"/>
<rect x="12" y="12" width="680" height="182" rx="30" fill="white" stroke="#3A5F3A" stroke-width="24"/>
<path d="M231.198 86L243.948 51H252.548L265.298 86H257.348L248.198 59.45L239.048 86H231.198ZM236.748 78.35L238.748 72.55H257.098L259.048 78.35H236.748ZM273.032 86.25C271.666 86.25 270.549 85.85 269.682 85.05C268.849 84.2167 268.432 83.2167 268.432 82.05C268.432 80.85 268.849 79.85 269.682 79.05C270.549 78.2167 271.666 77.8 273.032 77.8C274.366 77.8 275.449 78.2167 276.282 79.05C277.116 79.85 277.532 80.85 277.532 82.05C277.532 83.2167 277.116 84.2167 276.282 85.05C275.449 85.85 274.366 86.25 273.032 86.25ZM294.011 97.6C291.544 97.6 289.411 97.3 287.611 96.7C285.811 96.1333 284.411 95.2667 283.411 94.1C282.444 92.9333 281.961 91.4667 281.961 89.7C281.961 88.4333 282.294 87.25 282.961 86.15C283.661 85.05 284.644 84.0833 285.911 83.25C287.178 82.3833 288.694 81.6667 290.461 81.1L292.961 84.9C291.494 85.3333 290.394 85.9 289.661 86.6C288.961 87.3 288.611 88.0833 288.611 88.95C288.611 89.6167 288.844 90.1833 289.311 90.65C289.778 91.1167 290.411 91.4667 291.211 91.7C292.044 91.9333 292.961 92.05 293.961 92.05C294.928 92.05 295.761 91.9333 296.461 91.7C297.194 91.4667 297.761 91.1167 298.161 90.65C298.594 90.2167 298.811 89.6833 298.811 89.05C298.811 88.2167 298.528 87.55 297.961 87.05C297.394 86.55 296.228 86.2333 294.461 86.1C292.828 85.9667 291.344 85.7833 290.011 85.55C288.711 85.2833 287.544 84.9667 286.511 84.6C285.511 84.2333 284.644 83.8333 283.911 83.4C283.178 82.9667 282.611 82.5333 282.211 82.1V80.95L287.711 74.9L292.861 76.5L286.211 83.25L288.511 79.45C288.844 79.65 289.194 79.85 289.561 80.05C289.928 80.2167 290.378 80.3667 290.911 80.5C291.444 80.6333 292.111 80.7667 292.911 80.9C293.711 81 294.744 81.1167 296.011 81.25C298.178 81.45 299.961 81.8667 301.361 82.5C302.794 83.1 303.844 83.9333 304.511 85C305.211 86.0667 305.561 87.3667 305.561 88.9C305.561 90.4 305.144 91.8167 304.311 93.15C303.478 94.4833 302.211 95.55 300.511 96.35C298.811 97.1833 296.644 97.6 294.011 97.6ZM294.061 78.7C291.961 78.7 290.144 78.2833 288.611 77.45C287.078 76.6167 285.894 75.5167 285.061 74.15C284.228 72.75 283.811 71.1833 283.811 69.45C283.811 67.75 284.228 66.2167 285.061 64.85C285.894 63.45 287.078 62.3333 288.611 61.5C290.144 60.6333 291.961 60.2 294.061 60.2C296.194 60.2 298.028 60.6333 299.561 61.5C301.094 62.3333 302.261 63.45 303.061 64.85C303.861 66.2167 304.261 67.75 304.261 69.45C304.261 71.1833 303.861 72.75 303.061 74.15C302.261 75.5167 301.094 76.6167 299.561 77.45C298.028 78.2833 296.194 78.7 294.061 78.7ZM294.061 73.05C295.194 73.05 296.128 72.75 296.861 72.15C297.594 71.55 297.961 70.6667 297.961 69.5C297.961 68.3333 297.594 67.45 296.861 66.85C296.128 66.25 295.194 65.95 294.061 65.95C292.928 65.95 291.978 66.25 291.211 66.85C290.478 67.45 290.111 68.3333 290.111 69.5C290.111 70.6667 290.478 71.55 291.211 72.15C291.978 72.75 292.928 73.05 294.061 73.05ZM298.261 65.95L297.161 60.8H307.611V65.05L298.261 65.95ZM324.706 86.6C322.106 86.6 319.822 86.0667 317.856 85C315.889 83.9 314.339 82.3833 313.206 80.45C312.106 78.4833 311.556 76.2333 311.556 73.7C311.556 71.1 312.106 68.7833 313.206 66.75C314.306 64.7167 315.839 63.1167 317.806 61.95C319.772 60.7833 322.056 60.2 324.656 60.2C327.189 60.2 329.406 60.75 331.306 61.85C333.206 62.95 334.689 64.45 335.756 66.35C336.856 68.2167 337.406 70.3833 337.406 72.85C337.406 73.1833 337.389 73.5667 337.356 74C337.356 74.4 337.322 74.8167 337.256 75.25H316.906V70.9H329.756C329.689 69.5 329.172 68.3833 328.206 67.55C327.272 66.6833 326.106 66.25 324.706 66.25C323.639 66.25 322.672 66.5 321.806 67C320.939 67.5 320.239 68.25 319.706 69.25C319.206 70.25 318.956 71.5167 318.956 73.05V74.55C318.956 75.7167 319.172 76.75 319.606 77.65C320.072 78.55 320.722 79.25 321.556 79.75C322.422 80.25 323.439 80.5 324.606 80.5C325.706 80.5 326.606 80.2833 327.306 79.85C328.039 79.3833 328.606 78.8 329.006 78.1H336.656C336.189 79.7 335.389 81.15 334.256 82.45C333.122 83.7167 331.739 84.7333 330.106 85.5C328.472 86.2333 326.672 86.6 324.706 86.6ZM355.021 86.6C352.588 86.6 350.404 86.0333 348.471 84.9C346.538 83.7667 345.004 82.2167 343.871 80.25C342.738 78.25 342.171 75.9833 342.171 73.45C342.171 70.85 342.738 68.5667 343.871 66.6C345.004 64.6 346.538 63.0333 348.471 61.9C350.438 60.7667 352.621 60.2 355.021 60.2C357.488 60.2 359.688 60.7667 361.621 61.9C363.554 63.0333 365.088 64.6 366.221 66.6C367.354 68.5667 367.921 70.8333 367.921 73.4C367.921 75.9667 367.354 78.25 366.221 80.25C365.088 82.2167 363.554 83.7667 361.621 84.9C359.688 86.0333 357.488 86.6 355.021 86.6ZM355.021 80.1C356.021 80.1 356.904 79.85 357.671 79.35C358.471 78.85 359.104 78.1 359.571 77.1C360.038 76.1 360.271 74.8667 360.271 73.4C360.271 71.9333 360.038 70.7 359.571 69.7C359.104 68.7 358.488 67.95 357.721 67.45C356.954 66.95 356.071 66.7 355.071 66.7C354.071 66.7 353.171 66.95 352.371 67.45C351.604 67.95 350.988 68.7 350.521 69.7C350.054 70.7 349.821 71.9333 349.821 73.4C349.821 74.8667 350.054 76.1 350.521 77.1C350.988 78.1 351.604 78.85 352.371 79.35C353.171 79.85 354.054 80.1 355.021 80.1ZM368.983 97V90.65H371.033C372.033 90.65 372.749 90.4333 373.183 90C373.616 89.6 373.833 88.95 373.833 88.05V60.8H381.283V88C381.283 90.2 380.899 91.95 380.133 93.25C379.399 94.5833 378.349 95.5333 376.983 96.1C375.616 96.7 373.999 97 372.133 97H368.983ZM377.583 57.9C376.249 57.9 375.166 57.5167 374.333 56.75C373.499 55.9833 373.083 55.0167 373.083 53.85C373.083 52.65 373.499 51.6667 374.333 50.9C375.166 50.1333 376.266 49.75 377.633 49.75C378.966 49.75 380.049 50.1333 380.883 50.9C381.716 51.6667 382.133 52.65 382.133 53.85C382.133 55.0167 381.716 55.9833 380.883 56.75C380.049 57.5167 378.949 57.9 377.583 57.9ZM398.343 86.6C395.976 86.6 393.926 86.2333 392.193 85.5C390.493 84.7333 389.143 83.7 388.143 82.4C387.176 81.1 386.626 79.6333 386.493 78H393.943C394.076 78.5667 394.309 79.0833 394.643 79.55C395.009 79.9833 395.493 80.3333 396.093 80.6C396.726 80.8333 397.426 80.95 398.193 80.95C399.026 80.95 399.693 80.85 400.193 80.65C400.726 80.4167 401.126 80.1167 401.393 79.75C401.659 79.3833 401.793 79 401.793 78.6C401.793 77.9667 401.593 77.4833 401.193 77.15C400.826 76.8167 400.276 76.55 399.543 76.35C398.809 76.1167 397.926 75.9 396.893 75.7C395.693 75.4333 394.493 75.1333 393.293 74.8C392.126 74.4333 391.076 73.9833 390.143 73.45C389.243 72.9167 388.509 72.2333 387.943 71.4C387.409 70.5333 387.143 69.4833 387.143 68.25C387.143 66.75 387.559 65.4 388.393 64.2C389.226 62.9667 390.426 62 391.993 61.3C393.559 60.5667 395.459 60.2 397.693 60.2C400.859 60.2 403.343 60.9 405.143 62.3C406.943 63.7 408.009 65.5833 408.343 67.95H401.343C401.143 67.2833 400.726 66.7833 400.093 66.45C399.459 66.0833 398.659 65.9 397.693 65.9C396.593 65.9 395.759 66.0833 395.193 66.45C394.626 66.8167 394.343 67.3 394.343 67.9C394.343 68.3 394.526 68.6667 394.893 69C395.293 69.3 395.859 69.5667 396.593 69.8C397.326 70.0333 398.226 70.2667 399.293 70.5C401.326 70.9333 403.076 71.4 404.543 71.9C406.043 72.4 407.209 73.1333 408.043 74.1C408.876 75.0333 409.276 76.4 409.243 78.2C409.276 79.8333 408.843 81.2833 407.943 82.55C407.076 83.8167 405.826 84.8167 404.193 85.55C402.559 86.25 400.609 86.6 398.343 86.6ZM426.945 86.6C424.511 86.6 422.328 86.0333 420.395 84.9C418.461 83.7667 416.928 82.2167 415.795 80.25C414.661 78.25 414.095 75.9833 414.095 73.45C414.095 70.85 414.661 68.5667 415.795 66.6C416.928 64.6 418.461 63.0333 420.395 61.9C422.361 60.7667 424.545 60.2 426.945 60.2C429.411 60.2 431.611 60.7667 433.545 61.9C435.478 63.0333 437.011 64.6 438.145 66.6C439.278 68.5667 439.845 70.8333 439.845 73.4C439.845 75.9667 439.278 78.25 438.145 80.25C437.011 82.2167 435.478 83.7667 433.545 84.9C431.611 86.0333 429.411 86.6 426.945 86.6ZM426.945 80.1C427.945 80.1 428.828 79.85 429.595 79.35C430.395 78.85 431.028 78.1 431.495 77.1C431.961 76.1 432.195 74.8667 432.195 73.4C432.195 71.9333 431.961 70.7 431.495 69.7C431.028 68.7 430.411 67.95 429.645 67.45C428.878 66.95 427.995 66.7 426.995 66.7C425.995 66.7 425.095 66.95 424.295 67.45C423.528 67.95 422.911 68.7 422.445 69.7C421.978 70.7 421.745 71.9333 421.745 73.4C421.745 74.8667 421.978 76.1 422.445 77.1C422.911 78.1 423.528 78.85 424.295 79.35C425.095 79.85 425.978 80.1 426.945 80.1ZM445.606 86V60.8H452.156L452.756 64.85C453.523 63.45 454.606 62.3333 456.006 61.5C457.406 60.6333 459.106 60.2 461.106 60.2C463.206 60.2 464.973 60.65 466.406 61.55C467.84 62.45 468.923 63.75 469.656 65.45C470.423 67.1167 470.806 69.1667 470.806 71.6V86H463.356V72.3C463.356 70.4667 462.956 69.05 462.156 68.05C461.39 67.0167 460.156 66.5 458.456 66.5C457.456 66.5 456.54 66.75 455.706 67.25C454.906 67.7167 454.273 68.4 453.806 69.3C453.34 70.2 453.106 71.2833 453.106 72.55V86H445.606ZM79.5242 146L85.6742 111H90.6742L103.774 138.05L108.524 111H113.524L107.374 146H102.374L89.2742 118.95L84.5242 146H79.5242ZM125.879 146.6C123.713 146.6 121.829 146.133 120.229 145.2C118.663 144.267 117.463 142.95 116.629 141.25C115.829 139.55 115.496 137.567 115.629 135.3C115.696 133.167 116.113 131.2 116.879 129.4C117.679 127.567 118.729 125.967 120.029 124.6C121.363 123.233 122.913 122.167 124.679 121.4C126.446 120.6 128.379 120.2 130.479 120.2C132.746 120.2 134.646 120.667 136.179 121.6C137.713 122.533 138.829 123.783 139.529 125.35C140.263 126.917 140.579 128.667 140.479 130.6C140.479 131.2 140.413 131.867 140.279 132.6C140.179 133.333 140.046 134 139.879 134.6H119.329L119.929 131.05H135.579C135.746 129.617 135.596 128.417 135.129 127.45C134.696 126.45 134.013 125.683 133.079 125.15C132.179 124.617 131.096 124.35 129.829 124.35C128.463 124.35 127.163 124.667 125.929 125.3C124.696 125.9 123.629 126.8 122.729 128C121.829 129.167 121.213 130.65 120.879 132.45L120.629 133.85C120.329 135.55 120.379 137.05 120.779 138.35C121.179 139.65 121.879 140.667 122.879 141.4C123.879 142.1 125.113 142.45 126.579 142.45C128.179 142.45 129.563 142.1 130.729 141.4C131.896 140.667 132.829 139.717 133.529 138.55H138.529C137.796 140.083 136.813 141.467 135.579 142.7C134.346 143.9 132.913 144.85 131.279 145.55C129.646 146.25 127.846 146.6 125.879 146.6ZM143.883 146L148.283 120.8H153.283L148.883 146H143.883ZM152.233 116.1C151.267 116.1 150.467 115.8 149.833 115.2C149.233 114.6 148.933 113.833 148.933 112.9C148.933 112 149.233 111.25 149.833 110.65C150.467 110.05 151.267 109.75 152.233 109.75C153.167 109.75 153.95 110.05 154.583 110.65C155.217 111.217 155.533 111.967 155.533 112.9C155.533 113.833 155.2 114.6 154.533 115.2C153.9 115.8 153.133 116.1 152.233 116.1ZM163.831 157.6C161.664 157.6 159.781 157.317 158.181 156.75C156.614 156.217 155.414 155.4 154.581 154.3C153.714 153.233 153.314 151.917 153.381 150.35C153.448 149.15 153.764 148.033 154.331 147C154.898 145.967 155.714 145.017 156.781 144.15C157.848 143.283 159.181 142.5 160.781 141.8L163.181 144C161.514 144.667 160.281 145.483 159.481 146.45C158.714 147.417 158.314 148.433 158.281 149.5C158.248 150.367 158.464 151.117 158.931 151.75C159.431 152.383 160.148 152.85 161.081 153.15C162.048 153.483 163.181 153.65 164.481 153.65C166.548 153.65 168.264 153.2 169.631 152.3C170.998 151.4 171.714 150.183 171.781 148.65C171.814 147.683 171.481 146.85 170.781 146.15C170.114 145.483 168.731 145.1 166.631 145C165.031 144.867 163.614 144.683 162.381 144.45C161.181 144.217 160.131 143.95 159.231 143.65C158.364 143.317 157.614 142.95 156.981 142.55C156.348 142.117 155.814 141.65 155.381 141.15L155.581 140L161.281 135.2L164.981 136.6L158.781 141.5L160.181 139.05C160.581 139.317 160.981 139.567 161.381 139.8C161.781 140.033 162.248 140.25 162.781 140.45C163.348 140.617 164.031 140.767 164.831 140.9C165.631 141.033 166.631 141.133 167.831 141.2C170.098 141.367 171.881 141.783 173.181 142.45C174.481 143.083 175.398 143.9 175.931 144.9C176.464 145.9 176.698 147.017 176.631 148.25C176.564 150.017 175.981 151.6 174.881 153C173.814 154.4 172.331 155.517 170.431 156.35C168.564 157.183 166.364 157.6 163.831 157.6ZM167.131 138.25C165.231 138.25 163.631 137.917 162.331 137.25C161.031 136.55 160.064 135.617 159.431 134.45C158.831 133.283 158.564 131.95 158.631 130.45C158.698 128.55 159.248 126.833 160.281 125.3C161.348 123.733 162.748 122.5 164.481 121.6C166.214 120.667 168.164 120.2 170.331 120.2C172.231 120.2 173.814 120.55 175.081 121.25C176.381 121.95 177.331 122.883 177.931 124.05C178.564 125.217 178.848 126.533 178.781 128C178.681 129.933 178.114 131.683 177.081 133.25C176.081 134.783 174.714 136 172.981 136.9C171.281 137.8 169.331 138.25 167.131 138.25ZM167.831 134.3C169.664 134.3 171.164 133.767 172.331 132.7C173.498 131.633 174.114 130.217 174.181 128.45C174.281 127.05 173.914 126 173.081 125.3C172.281 124.567 171.131 124.2 169.631 124.2C167.831 124.2 166.331 124.733 165.131 125.8C163.931 126.867 163.298 128.283 163.231 130.05C163.131 131.417 163.498 132.467 164.331 133.2C165.164 133.933 166.331 134.3 167.831 134.3ZM173.681 124.7L173.131 120.8H183.481L182.831 124.2L173.681 124.7ZM183.963 146L190.263 110H195.263L192.663 124.9C193.73 123.433 195.063 122.283 196.663 121.45C198.296 120.617 200.013 120.2 201.813 120.2C203.813 120.2 205.463 120.617 206.763 121.45C208.063 122.25 208.946 123.467 209.413 125.1C209.913 126.7 209.946 128.717 209.513 131.15L206.913 146H201.913L204.463 131.65C204.863 129.317 204.663 127.55 203.863 126.35C203.063 125.117 201.68 124.5 199.713 124.5C198.38 124.5 197.13 124.817 195.963 125.45C194.796 126.083 193.813 127.017 193.013 128.25C192.213 129.45 191.646 130.917 191.313 132.65L188.963 146H183.963ZM227.056 146.6C225.69 146.6 224.456 146.383 223.356 145.95C222.29 145.517 221.39 144.967 220.656 144.3C219.956 143.6 219.406 142.867 219.006 142.1L217.856 146H213.356L219.706 110H224.706L222.156 124.5C223.156 123.3 224.423 122.283 225.956 121.45C227.49 120.617 229.273 120.2 231.306 120.2C233.506 120.2 235.356 120.7 236.856 121.7C238.39 122.7 239.54 124.067 240.306 125.8C241.106 127.5 241.456 129.45 241.356 131.65C241.256 133.75 240.823 135.717 240.056 137.55C239.323 139.35 238.306 140.933 237.006 142.3C235.706 143.633 234.206 144.683 232.506 145.45C230.84 146.217 229.023 146.6 227.056 146.6ZM227.006 142.25C228.706 142.25 230.223 141.833 231.556 141C232.923 140.133 234.006 138.95 234.806 137.45C235.64 135.917 236.106 134.183 236.206 132.25C236.273 130.75 236.056 129.417 235.556 128.25C235.056 127.083 234.306 126.183 233.306 125.55C232.34 124.883 231.156 124.55 229.756 124.55C228.023 124.55 226.473 125 225.106 125.9C223.773 126.767 222.69 127.967 221.856 129.5C221.023 131.033 220.573 132.767 220.506 134.7C220.406 136.2 220.606 137.533 221.106 138.7C221.64 139.833 222.406 140.717 223.406 141.35C224.406 141.95 225.606 142.25 227.006 142.25ZM256.599 146.6C254.399 146.6 252.483 146.1 250.849 145.1C249.216 144.1 247.966 142.733 247.099 141C246.266 139.233 245.916 137.233 246.049 135C246.149 132.867 246.583 130.9 247.349 129.1C248.149 127.3 249.216 125.75 250.549 124.45C251.916 123.117 253.466 122.083 255.199 121.35C256.966 120.583 258.849 120.2 260.849 120.2C263.049 120.2 264.966 120.7 266.599 121.7C268.233 122.667 269.466 124.017 270.299 125.75C271.166 127.45 271.549 129.45 271.449 131.75C271.349 133.883 270.899 135.85 270.099 137.65C269.333 139.45 268.266 141.017 266.899 142.35C265.566 143.683 264.016 144.733 262.249 145.5C260.516 146.233 258.633 146.6 256.599 146.6ZM257.299 142.3C258.933 142.3 260.399 141.867 261.699 141C263.033 140.133 264.116 138.917 264.949 137.35C265.783 135.783 266.233 133.983 266.299 131.95C266.399 130.35 266.183 129 265.649 127.9C265.149 126.8 264.416 125.967 263.449 125.4C262.483 124.8 261.399 124.5 260.199 124.5C258.599 124.5 257.133 124.95 255.799 125.85C254.499 126.717 253.433 127.933 252.599 129.5C251.766 131.033 251.316 132.817 251.249 134.85C251.149 136.45 251.349 137.8 251.849 138.9C252.383 140 253.116 140.85 254.049 141.45C255.016 142.017 256.099 142.3 257.299 142.3ZM284.177 146.6C282.077 146.6 280.377 146.15 279.077 145.25C277.811 144.317 276.944 143.033 276.477 141.4C276.044 139.733 276.027 137.817 276.427 135.65L279.077 120.8H284.027L281.477 135.2C281.111 137.5 281.277 139.267 281.977 140.5C282.677 141.733 284.061 142.35 286.127 142.35C287.461 142.35 288.694 142.05 289.827 141.45C290.994 140.817 291.994 139.933 292.827 138.8C293.661 137.633 294.227 136.217 294.527 134.55L296.977 120.8H301.977L297.527 146H293.077L293.427 141.7C292.427 143.233 291.111 144.433 289.477 145.3C287.877 146.167 286.111 146.6 284.177 146.6ZM304.422 146L308.822 120.8H313.322L312.972 125.35C313.739 124.25 314.639 123.333 315.672 122.6C316.705 121.833 317.872 121.25 319.172 120.85C320.505 120.417 321.922 120.2 323.422 120.2L322.522 125.5H320.772C319.672 125.5 318.639 125.617 317.672 125.85C316.705 126.083 315.822 126.5 315.022 127.1C314.222 127.667 313.522 128.417 312.922 129.35C312.355 130.283 311.955 131.467 311.722 132.9L309.422 146H304.422ZM333.363 146.6C331.129 146.6 329.263 146.233 327.763 145.5C326.263 144.767 325.163 143.75 324.463 142.45C323.763 141.117 323.479 139.583 323.613 137.85H328.613C328.613 138.717 328.779 139.5 329.113 140.2C329.479 140.9 330.063 141.467 330.863 141.9C331.663 142.333 332.713 142.55 334.013 142.55C335.113 142.55 336.063 142.383 336.863 142.05C337.663 141.717 338.279 141.267 338.713 140.7C339.179 140.1 339.429 139.4 339.463 138.6C339.496 137.833 339.313 137.233 338.913 136.8C338.513 136.333 337.913 135.967 337.113 135.7C336.346 135.433 335.429 135.2 334.363 135C333.296 134.8 332.263 134.533 331.263 134.2C330.263 133.833 329.379 133.383 328.613 132.85C327.879 132.317 327.296 131.667 326.863 130.9C326.463 130.133 326.296 129.217 326.363 128.15C326.429 126.617 326.913 125.267 327.813 124.1C328.746 122.9 329.996 121.95 331.563 121.25C333.163 120.55 334.963 120.2 336.963 120.2C339.763 120.2 341.946 120.883 343.513 122.25C345.113 123.583 345.846 125.45 345.713 127.85H340.863C340.896 126.75 340.513 125.883 339.713 125.25C338.913 124.617 337.796 124.3 336.363 124.3C334.929 124.3 333.746 124.617 332.813 125.25C331.913 125.85 331.446 126.617 331.413 127.55C331.379 128.183 331.546 128.733 331.913 129.2C332.313 129.633 332.896 130 333.663 130.3C334.463 130.567 335.429 130.817 336.563 131.05C337.729 131.283 338.813 131.583 339.813 131.95C340.813 132.283 341.679 132.717 342.413 133.25C343.179 133.75 343.746 134.4 344.113 135.2C344.513 135.967 344.679 136.917 344.613 138.05C344.546 139.783 344.013 141.3 343.013 142.6C342.013 143.867 340.679 144.85 339.013 145.55C337.346 146.25 335.463 146.6 333.363 146.6ZM351.795 146.25C350.862 146.25 350.078 145.95 349.445 145.35C348.845 144.75 348.545 144 348.545 143.1C348.545 142.2 348.845 141.45 349.445 140.85C350.078 140.217 350.862 139.9 351.795 139.9C352.762 139.9 353.545 140.217 354.145 140.85C354.745 141.45 355.045 142.2 355.045 143.1C355.045 144 354.745 144.75 354.145 145.35C353.545 145.95 352.762 146.25 351.795 146.25ZM355.245 126.55C354.312 126.55 353.528 126.25 352.895 125.65C352.295 125.05 351.995 124.3 351.995 123.4C351.995 122.5 352.295 121.75 352.895 121.15C353.528 120.517 354.312 120.2 355.245 120.2C356.212 120.2 356.995 120.517 357.595 121.15C358.195 121.75 358.495 122.5 358.495 123.4C358.495 124.3 358.195 125.05 357.595 125.65C356.995 126.25 356.212 126.55 355.245 126.55ZM372.753 153.9L381.303 105.45H391.403L390.703 109.55H385.253L378.153 149.75H383.603L382.853 153.9H372.753ZM402.002 122.9L408.852 111H412.352L407.502 122.9H402.002ZM393.402 122.9L400.252 111H403.752L398.852 122.9H393.402ZM408.962 146L428.013 111H433.513L440.113 146H434.863L429.713 116.8L414.263 146H408.962ZM415.663 137.35L417.663 133.4H435.413L436.063 137.35H415.663ZM443.999 152.6L444.799 147.85H471.449L470.649 152.6H443.999ZM487.67 146C485.903 146 484.47 145.717 483.37 145.15C482.27 144.583 481.537 143.717 481.17 142.55C480.803 141.35 480.77 139.817 481.07 137.95L483.37 125.05H479.27L480.07 120.8H484.12L485.87 114.5H490.27L489.12 120.8H496.27L495.52 125.05H488.42L486.07 137.95C485.837 139.417 485.987 140.417 486.52 140.95C487.053 141.483 487.987 141.75 489.32 141.75H492.57L491.82 146H487.67ZM508.406 146.6C506.206 146.6 504.289 146.1 502.656 145.1C501.023 144.1 499.773 142.733 498.906 141C498.073 139.233 497.723 137.233 497.856 135C497.956 132.867 498.389 130.9 499.156 129.1C499.956 127.3 501.023 125.75 502.356 124.45C503.723 123.117 505.273 122.083 507.006 121.35C508.773 120.583 510.656 120.2 512.656 120.2C514.856 120.2 516.773 120.7 518.406 121.7C520.039 122.667 521.273 124.017 522.106 125.75C522.973 127.45 523.356 129.45 523.256 131.75C523.156 133.883 522.706 135.85 521.906 137.65C521.139 139.45 520.073 141.017 518.706 142.35C517.373 143.683 515.823 144.733 514.056 145.5C512.323 146.233 510.439 146.6 508.406 146.6ZM509.106 142.3C510.739 142.3 512.206 141.867 513.506 141C514.839 140.133 515.923 138.917 516.756 137.35C517.589 135.783 518.039 133.983 518.106 131.95C518.206 130.35 517.989 129 517.456 127.9C516.956 126.8 516.223 125.967 515.256 125.4C514.289 124.8 513.206 124.5 512.006 124.5C510.406 124.5 508.939 124.95 507.606 125.85C506.306 126.717 505.239 127.933 504.406 129.5C503.573 131.033 503.123 132.817 503.056 134.85C502.956 136.45 503.156 137.8 503.656 138.9C504.189 140 504.923 140.85 505.856 141.45C506.823 142.017 507.906 142.3 509.106 142.3ZM525.884 152.6L526.684 147.85H553.334L552.534 152.6H525.884ZM559.505 146L565.655 111H578.655C580.888 111 582.721 111.333 584.155 112C585.588 112.667 586.638 113.6 587.305 114.8C587.971 115.967 588.271 117.317 588.205 118.85C588.138 120.65 587.655 122.233 586.755 123.6C585.855 124.967 584.688 126.05 583.255 126.85C581.821 127.65 580.205 128.133 578.405 128.3L579.205 127.8C580.605 127.833 581.821 128.183 582.855 128.85C583.921 129.517 584.738 130.4 585.305 131.5C585.871 132.6 586.121 133.867 586.055 135.3C585.988 137.4 585.355 139.267 584.155 140.9C582.988 142.5 581.421 143.75 579.455 144.65C577.521 145.55 575.321 146 572.855 146H559.505ZM565.205 141.95H572.955C574.555 141.95 575.955 141.667 577.155 141.1C578.355 140.533 579.288 139.733 579.955 138.7C580.655 137.667 581.038 136.45 581.105 135.05C581.171 133.483 580.655 132.25 579.555 131.35C578.455 130.417 576.921 129.95 574.955 129.95H567.305L565.205 141.95ZM568.055 126.1H575.405C577.638 126.1 579.438 125.533 580.805 124.4C582.171 123.233 582.888 121.667 582.955 119.7C582.988 118.733 582.805 117.9 582.405 117.2C582.005 116.5 581.371 115.967 580.505 115.6C579.671 115.2 578.571 115 577.205 115H569.955L568.055 126.1ZM602.316 111.05L595.466 122.95H591.966L596.866 111.05H602.316ZM610.916 111.05L604.066 122.95H600.566L605.466 111.05H610.916ZM627.227 105.45L618.677 153.9H608.527L609.277 149.8H614.727L621.777 109.6H616.377L617.077 105.45H627.227Z" fill="#3A5F3A"/>
<path d="M339 237V788" stroke="black" stroke-width="11"/>
<rect x="53" y="390" width="572" height="245" rx="27" fill="white" stroke="black" stroke-width="18"/>
<path d="M145.06 466L157.81 431H166.41L179.16 466H171.21L162.06 439.45L152.91 466H145.06ZM150.61 458.35L152.61 452.55H170.96L172.91 458.35H150.61ZM184.044 475.15V468H213.444V475.15H184.044ZM232.401 466C230.567 466 228.951 465.717 227.551 465.15C226.151 464.55 225.067 463.583 224.301 462.25C223.534 460.917 223.151 459.1 223.151 456.8V447.05H218.851V440.8H223.151L223.951 433.7H230.651V440.8H237.101V447.05H230.651V456.9C230.651 457.9 230.867 458.617 231.301 459.05C231.767 459.45 232.551 459.65 233.651 459.65H237.101V466H232.401ZM254.38 466.6C251.947 466.6 249.764 466.033 247.83 464.9C245.897 463.767 244.364 462.217 243.23 460.25C242.097 458.25 241.53 455.983 241.53 453.45C241.53 450.85 242.097 448.567 243.23 446.6C244.364 444.6 245.897 443.033 247.83 441.9C249.797 440.767 251.98 440.2 254.38 440.2C256.847 440.2 259.047 440.767 260.98 441.9C262.914 443.033 264.447 444.6 265.58 446.6C266.714 448.567 267.28 450.833 267.28 453.4C267.28 455.967 266.714 458.25 265.58 460.25C264.447 462.217 262.914 463.767 260.98 464.9C259.047 466.033 256.847 466.6 254.38 466.6ZM254.38 460.1C255.38 460.1 256.264 459.85 257.03 459.35C257.83 458.85 258.464 458.1 258.93 457.1C259.397 456.1 259.63 454.867 259.63 453.4C259.63 451.933 259.397 450.7 258.93 449.7C258.464 448.7 257.847 447.95 257.08 447.45C256.314 446.95 255.43 446.7 254.43 446.7C253.43 446.7 252.53 446.95 251.73 447.45C250.964 447.95 250.347 448.7 249.88 449.7C249.414 450.7 249.18 451.933 249.18 453.4C249.18 454.867 249.414 456.1 249.88 457.1C250.347 458.1 250.964 458.85 251.73 459.35C252.53 459.85 253.414 460.1 254.38 460.1ZM273.692 475.15V468H303.092V475.15H273.692ZM310.349 466V431H325.299C327.732 431 329.782 431.383 331.449 432.15C333.116 432.883 334.382 433.933 335.249 435.3C336.149 436.633 336.599 438.217 336.599 440.05C336.599 441.817 336.216 443.3 335.449 444.5C334.682 445.7 333.666 446.617 332.399 447.25C331.166 447.883 329.799 448.267 328.299 448.4L329.099 447.8C330.732 447.867 332.166 448.3 333.399 449.1C334.632 449.9 335.599 450.95 336.299 452.25C337.032 453.517 337.399 454.917 337.399 456.45C337.399 458.35 336.949 460.017 336.049 461.45C335.149 462.883 333.832 464 332.099 464.8C330.366 465.6 328.266 466 325.799 466H310.349ZM317.849 459.9H324.549C326.216 459.9 327.499 459.533 328.399 458.8C329.332 458.033 329.799 456.933 329.799 455.5C329.799 454.067 329.316 452.95 328.349 452.15C327.416 451.35 326.116 450.95 324.449 450.95H317.849V459.9ZM317.849 445.4H323.999C325.599 445.4 326.816 445.033 327.649 444.3C328.516 443.567 328.949 442.533 328.949 441.2C328.949 439.867 328.516 438.833 327.649 438.1C326.816 437.333 325.582 436.95 323.949 436.95H317.849V445.4ZM346.171 466.25C344.804 466.25 343.688 465.85 342.821 465.05C341.988 464.217 341.571 463.217 341.571 462.05C341.571 460.85 341.988 459.85 342.821 459.05C343.688 458.217 344.804 457.8 346.171 457.8C347.504 457.8 348.588 458.217 349.421 459.05C350.254 459.85 350.671 460.85 350.671 462.05C350.671 463.217 350.254 464.217 349.421 465.05C348.588 465.85 347.504 466.25 346.171 466.25ZM367.15 477.6C364.683 477.6 362.55 477.3 360.75 476.7C358.95 476.133 357.55 475.267 356.55 474.1C355.583 472.933 355.1 471.467 355.1 469.7C355.1 468.433 355.433 467.25 356.1 466.15C356.8 465.05 357.783 464.083 359.05 463.25C360.316 462.383 361.833 461.667 363.6 461.1L366.1 464.9C364.633 465.333 363.533 465.9 362.8 466.6C362.1 467.3 361.75 468.083 361.75 468.95C361.75 469.617 361.983 470.183 362.45 470.65C362.916 471.117 363.55 471.467 364.35 471.7C365.183 471.933 366.1 472.05 367.1 472.05C368.066 472.05 368.9 471.933 369.6 471.7C370.333 471.467 370.9 471.117 371.3 470.65C371.733 470.217 371.95 469.683 371.95 469.05C371.95 468.217 371.666 467.55 371.1 467.05C370.533 466.55 369.366 466.233 367.6 466.1C365.966 465.967 364.483 465.783 363.15 465.55C361.85 465.283 360.683 464.967 359.65 464.6C358.65 464.233 357.783 463.833 357.05 463.4C356.316 462.967 355.75 462.533 355.35 462.1V460.95L360.85 454.9L366 456.5L359.35 463.25L361.65 459.45C361.983 459.65 362.333 459.85 362.7 460.05C363.066 460.217 363.516 460.367 364.05 460.5C364.583 460.633 365.25 460.767 366.05 460.9C366.85 461 367.883 461.117 369.15 461.25C371.316 461.45 373.1 461.867 374.5 462.5C375.933 463.1 376.983 463.933 377.65 465C378.35 466.067 378.7 467.367 378.7 468.9C378.7 470.4 378.283 471.817 377.45 473.15C376.616 474.483 375.35 475.55 373.65 476.35C371.95 477.183 369.783 477.6 367.15 477.6ZM367.2 458.7C365.1 458.7 363.283 458.283 361.75 457.45C360.216 456.617 359.033 455.517 358.2 454.15C357.366 452.75 356.95 451.183 356.95 449.45C356.95 447.75 357.366 446.217 358.2 444.85C359.033 443.45 360.216 442.333 361.75 441.5C363.283 440.633 365.1 440.2 367.2 440.2C369.333 440.2 371.166 440.633 372.7 441.5C374.233 442.333 375.4 443.45 376.2 444.85C377 446.217 377.4 447.75 377.4 449.45C377.4 451.183 377 452.75 376.2 454.15C375.4 455.517 374.233 456.617 372.7 457.45C371.166 458.283 369.333 458.7 367.2 458.7ZM367.2 453.05C368.333 453.05 369.266 452.75 370 452.15C370.733 451.55 371.1 450.667 371.1 449.5C371.1 448.333 370.733 447.45 370 446.85C369.266 446.25 368.333 445.95 367.2 445.95C366.066 445.95 365.116 446.25 364.35 446.85C363.616 447.45 363.25 448.333 363.25 449.5C363.25 450.667 363.616 451.55 364.35 452.15C365.116 452.75 366.066 453.05 367.2 453.05ZM371.4 445.95L370.3 440.8H380.75V445.05L371.4 445.95ZM397.844 466.6C395.244 466.6 392.961 466.067 390.994 465C389.028 463.9 387.478 462.383 386.344 460.45C385.244 458.483 384.694 456.233 384.694 453.7C384.694 451.1 385.244 448.783 386.344 446.75C387.444 444.717 388.978 443.117 390.944 441.95C392.911 440.783 395.194 440.2 397.794 440.2C400.328 440.2 402.544 440.75 404.444 441.85C406.344 442.95 407.828 444.45 408.894 446.35C409.994 448.217 410.544 450.383 410.544 452.85C410.544 453.183 410.528 453.567 410.494 454C410.494 454.4 410.461 454.817 410.394 455.25H390.044V450.9H402.894C402.828 449.5 402.311 448.383 401.344 447.55C400.411 446.683 399.244 446.25 397.844 446.25C396.778 446.25 395.811 446.5 394.944 447C394.078 447.5 393.378 448.25 392.844 449.25C392.344 450.25 392.094 451.517 392.094 453.05V454.55C392.094 455.717 392.311 456.75 392.744 457.65C393.211 458.55 393.861 459.25 394.694 459.75C395.561 460.25 396.578 460.5 397.744 460.5C398.844 460.5 399.744 460.283 400.444 459.85C401.178 459.383 401.744 458.8 402.144 458.1H409.794C409.328 459.7 408.528 461.15 407.394 462.45C406.261 463.717 404.878 464.733 403.244 465.5C401.611 466.233 399.811 466.6 397.844 466.6ZM428.16 466.6C425.726 466.6 423.543 466.033 421.61 464.9C419.676 463.767 418.143 462.217 417.01 460.25C415.876 458.25 415.31 455.983 415.31 453.45C415.31 450.85 415.876 448.567 417.01 446.6C418.143 444.6 419.676 443.033 421.61 441.9C423.576 440.767 425.76 440.2 428.16 440.2C430.626 440.2 432.826 440.767 434.76 441.9C436.693 443.033 438.226 444.6 439.36 446.6C440.493 448.567 441.06 450.833 441.06 453.4C441.06 455.967 440.493 458.25 439.36 460.25C438.226 462.217 436.693 463.767 434.76 464.9C432.826 466.033 430.626 466.6 428.16 466.6ZM428.16 460.1C429.16 460.1 430.043 459.85 430.81 459.35C431.61 458.85 432.243 458.1 432.71 457.1C433.176 456.1 433.41 454.867 433.41 453.4C433.41 451.933 433.176 450.7 432.71 449.7C432.243 448.7 431.626 447.95 430.86 447.45C430.093 446.95 429.21 446.7 428.21 446.7C427.21 446.7 426.31 446.95 425.51 447.45C424.743 447.95 424.126 448.7 423.66 449.7C423.193 450.7 422.96 451.933 422.96 453.4C422.96 454.867 423.193 456.1 423.66 457.1C424.126 458.1 424.743 458.85 425.51 459.35C426.31 459.85 427.193 460.1 428.16 460.1ZM442.121 477V470.65H444.171C445.171 470.65 445.888 470.433 446.321 470C446.755 469.6 446.971 468.95 446.971 468.05V440.8H454.421V468C454.421 470.2 454.038 471.95 453.271 473.25C452.538 474.583 451.488 475.533 450.121 476.1C448.755 476.7 447.138 477 445.271 477H442.121ZM450.721 437.9C449.388 437.9 448.305 437.517 447.471 436.75C446.638 435.983 446.221 435.017 446.221 433.85C446.221 432.65 446.638 431.667 447.471 430.9C448.305 430.133 449.405 429.75 450.771 429.75C452.105 429.75 453.188 430.133 454.021 430.9C454.855 431.667 455.271 432.65 455.271 433.85C455.271 435.017 454.855 435.983 454.021 436.75C453.188 437.517 452.088 437.9 450.721 437.9ZM471.481 466.6C469.115 466.6 467.065 466.233 465.331 465.5C463.631 464.733 462.281 463.7 461.281 462.4C460.315 461.1 459.765 459.633 459.631 458H467.081C467.215 458.567 467.448 459.083 467.781 459.55C468.148 459.983 468.631 460.333 469.231 460.6C469.865 460.833 470.565 460.95 471.331 460.95C472.165 460.95 472.831 460.85 473.331 460.65C473.865 460.417 474.265 460.117 474.531 459.75C474.798 459.383 474.931 459 474.931 458.6C474.931 457.967 474.731 457.483 474.331 457.15C473.965 456.817 473.415 456.55 472.681 456.35C471.948 456.117 471.065 455.9 470.031 455.7C468.831 455.433 467.631 455.133 466.431 454.8C465.265 454.433 464.215 453.983 463.281 453.45C462.381 452.917 461.648 452.233 461.081 451.4C460.548 450.533 460.281 449.483 460.281 448.25C460.281 446.75 460.698 445.4 461.531 444.2C462.365 442.967 463.565 442 465.131 441.3C466.698 440.567 468.598 440.2 470.831 440.2C473.998 440.2 476.481 440.9 478.281 442.3C480.081 443.7 481.148 445.583 481.481 447.95H474.481C474.281 447.283 473.865 446.783 473.231 446.45C472.598 446.083 471.798 445.9 470.831 445.9C469.731 445.9 468.898 446.083 468.331 446.45C467.765 446.817 467.481 447.3 467.481 447.9C467.481 448.3 467.665 448.667 468.031 449C468.431 449.3 468.998 449.567 469.731 449.8C470.465 450.033 471.365 450.267 472.431 450.5C474.465 450.933 476.215 451.4 477.681 451.9C479.181 452.4 480.348 453.133 481.181 454.1C482.015 455.033 482.415 456.4 482.381 458.2C482.415 459.833 481.981 461.283 481.081 462.55C480.215 463.817 478.965 464.817 477.331 465.55C475.698 466.25 473.748 466.6 471.481 466.6ZM500.083 466.6C497.65 466.6 495.467 466.033 493.533 464.9C491.6 463.767 490.067 462.217 488.933 460.25C487.8 458.25 487.233 455.983 487.233 453.45C487.233 450.85 487.8 448.567 488.933 446.6C490.067 444.6 491.6 443.033 493.533 441.9C495.5 440.767 497.683 440.2 500.083 440.2C502.55 440.2 504.75 440.767 506.683 441.9C508.617 443.033 510.15 444.6 511.283 446.6C512.417 448.567 512.983 450.833 512.983 453.4C512.983 455.967 512.417 458.25 511.283 460.25C510.15 462.217 508.617 463.767 506.683 464.9C504.75 466.033 502.55 466.6 500.083 466.6ZM500.083 460.1C501.083 460.1 501.967 459.85 502.733 459.35C503.533 458.85 504.167 458.1 504.633 457.1C505.1 456.1 505.333 454.867 505.333 453.4C505.333 451.933 505.1 450.7 504.633 449.7C504.167 448.7 503.55 447.95 502.783 447.45C502.017 446.95 501.133 446.7 500.133 446.7C499.133 446.7 498.233 446.95 497.433 447.45C496.667 447.95 496.05 448.7 495.583 449.7C495.117 450.7 494.883 451.933 494.883 453.4C494.883 454.867 495.117 456.1 495.583 457.1C496.05 458.1 496.667 458.85 497.433 459.35C498.233 459.85 499.117 460.1 500.083 460.1ZM518.745 466V440.8H525.295L525.895 444.85C526.662 443.45 527.745 442.333 529.145 441.5C530.545 440.633 532.245 440.2 534.245 440.2C536.345 440.2 538.112 440.65 539.545 441.55C540.978 442.45 542.062 443.75 542.795 445.45C543.562 447.117 543.945 449.167 543.945 451.6V466H536.495V452.3C536.495 450.467 536.095 449.05 535.295 448.05C534.528 447.017 533.295 446.5 531.595 446.5C530.595 446.5 529.678 446.75 528.845 447.25C528.045 447.717 527.412 448.4 526.945 449.3C526.478 450.2 526.245 451.283 526.245 452.55V466H518.745ZM165.012 526.05L161.762 491H167.112L169.062 520.05L182.312 491H187.912L190.662 520.05L202.912 491H208.312L192.462 526H186.612L183.712 498.25L170.762 526L165.012 526.05ZM215.79 526.6C213.624 526.6 211.74 526.133 210.14 525.2C208.574 524.267 207.374 522.95 206.54 521.25C205.74 519.55 205.407 517.567 205.54 515.3C205.607 513.167 206.024 511.2 206.79 509.4C207.59 507.567 208.64 505.967 209.94 504.6C211.274 503.233 212.824 502.167 214.59 501.4C216.357 500.6 218.29 500.2 220.39 500.2C222.657 500.2 224.557 500.667 226.09 501.6C227.624 502.533 228.74 503.783 229.44 505.35C230.174 506.917 230.49 508.667 230.39 510.6C230.39 511.2 230.324 511.867 230.19 512.6C230.09 513.333 229.957 514 229.79 514.6H209.24L209.84 511.05H225.49C225.657 509.617 225.507 508.417 225.04 507.45C224.607 506.45 223.924 505.683 222.99 505.15C222.09 504.617 221.007 504.35 219.74 504.35C218.374 504.35 217.074 504.667 215.84 505.3C214.607 505.9 213.54 506.8 212.64 508C211.74 509.167 211.124 510.65 210.79 512.45L210.54 513.85C210.24 515.55 210.29 517.05 210.69 518.35C211.09 519.65 211.79 520.667 212.79 521.4C213.79 522.1 215.024 522.45 216.49 522.45C218.09 522.45 219.474 522.1 220.64 521.4C221.807 520.667 222.74 519.717 223.44 518.55H228.44C227.707 520.083 226.724 521.467 225.49 522.7C224.257 523.9 222.824 524.85 221.19 525.55C219.557 526.25 217.757 526.6 215.79 526.6ZM233.794 526L238.194 500.8H243.194L238.794 526H233.794ZM242.144 496.1C241.178 496.1 240.378 495.8 239.744 495.2C239.144 494.6 238.844 493.833 238.844 492.9C238.844 492 239.144 491.25 239.744 490.65C240.378 490.05 241.178 489.75 242.144 489.75C243.078 489.75 243.861 490.05 244.494 490.65C245.128 491.217 245.444 491.967 245.444 492.9C245.444 493.833 245.111 494.6 244.444 495.2C243.811 495.8 243.044 496.1 242.144 496.1ZM253.742 537.6C251.575 537.6 249.692 537.317 248.092 536.75C246.525 536.217 245.325 535.4 244.492 534.3C243.625 533.233 243.225 531.917 243.292 530.35C243.359 529.15 243.675 528.033 244.242 527C244.809 525.967 245.625 525.017 246.692 524.15C247.759 523.283 249.092 522.5 250.692 521.8L253.092 524C251.425 524.667 250.192 525.483 249.392 526.45C248.625 527.417 248.225 528.433 248.192 529.5C248.159 530.367 248.375 531.117 248.842 531.75C249.342 532.383 250.059 532.85 250.992 533.15C251.959 533.483 253.092 533.65 254.392 533.65C256.459 533.65 258.175 533.2 259.542 532.3C260.909 531.4 261.625 530.183 261.692 528.65C261.725 527.683 261.392 526.85 260.692 526.15C260.025 525.483 258.642 525.1 256.542 525C254.942 524.867 253.525 524.683 252.292 524.45C251.092 524.217 250.042 523.95 249.142 523.65C248.275 523.317 247.525 522.95 246.892 522.55C246.259 522.117 245.725 521.65 245.292 521.15L245.492 520L251.192 515.2L254.892 516.6L248.692 521.5L250.092 519.05C250.492 519.317 250.892 519.567 251.292 519.8C251.692 520.033 252.159 520.25 252.692 520.45C253.259 520.617 253.942 520.767 254.742 520.9C255.542 521.033 256.542 521.133 257.742 521.2C260.009 521.367 261.792 521.783 263.092 522.45C264.392 523.083 265.309 523.9 265.842 524.9C266.375 525.9 266.609 527.017 266.542 528.25C266.475 530.017 265.892 531.6 264.792 533C263.725 534.4 262.242 535.517 260.342 536.35C258.475 537.183 256.275 537.6 253.742 537.6ZM257.042 518.25C255.142 518.25 253.542 517.917 252.242 517.25C250.942 516.55 249.975 515.617 249.342 514.45C248.742 513.283 248.475 511.95 248.542 510.45C248.609 508.55 249.159 506.833 250.192 505.3C251.259 503.733 252.659 502.5 254.392 501.6C256.125 500.667 258.075 500.2 260.242 500.2C262.142 500.2 263.725 500.55 264.992 501.25C266.292 501.95 267.242 502.883 267.842 504.05C268.475 505.217 268.759 506.533 268.692 508C268.592 509.933 268.025 511.683 266.992 513.25C265.992 514.783 264.625 516 262.892 516.9C261.192 517.8 259.242 518.25 257.042 518.25ZM257.742 514.3C259.575 514.3 261.075 513.767 262.242 512.7C263.409 511.633 264.025 510.217 264.092 508.45C264.192 507.05 263.825 506 262.992 505.3C262.192 504.567 261.042 504.2 259.542 504.2C257.742 504.2 256.242 504.733 255.042 505.8C253.842 506.867 253.209 508.283 253.142 510.05C253.042 511.417 253.409 512.467 254.242 513.2C255.075 513.933 256.242 514.3 257.742 514.3ZM263.592 504.7L263.042 500.8H273.392L272.742 504.2L263.592 504.7ZM273.874 526L280.174 490H285.174L282.574 504.9C283.641 503.433 284.974 502.283 286.574 501.45C288.207 500.617 289.924 500.2 291.724 500.2C293.724 500.2 295.374 500.617 296.674 501.45C297.974 502.25 298.857 503.467 299.324 505.1C299.824 506.7 299.857 508.717 299.424 511.15L296.824 526H291.824L294.374 511.65C294.774 509.317 294.574 507.55 293.774 506.35C292.974 505.117 291.591 504.5 289.624 504.5C288.291 504.5 287.041 504.817 285.874 505.45C284.707 506.083 283.724 507.017 282.924 508.25C282.124 509.45 281.557 510.917 281.224 512.65L278.874 526H273.874ZM313.567 526C311.801 526 310.367 525.717 309.267 525.15C308.167 524.583 307.434 523.717 307.067 522.55C306.701 521.35 306.667 519.817 306.967 517.95L309.267 505.05H305.167L305.967 500.8H310.017L311.767 494.5H316.167L315.017 500.8H322.167L321.417 505.05H314.317L311.967 517.95C311.734 519.417 311.884 520.417 312.417 520.95C312.951 521.483 313.884 521.75 315.217 521.75H318.467L317.717 526H313.567ZM337.91 511.15V506.55H365.81L351.86 493.55L355.01 490.35L372.91 507.4V510.15L355.01 527.25L351.81 524.05L365.66 511.15H337.91ZM388.131 526L394.531 490H399.531L393.131 526H388.131ZM411.445 526.6C409.278 526.6 407.395 526.133 405.795 525.2C404.228 524.267 403.028 522.95 402.195 521.25C401.395 519.55 401.061 517.567 401.195 515.3C401.261 513.167 401.678 511.2 402.445 509.4C403.245 507.567 404.295 505.967 405.595 504.6C406.928 503.233 408.478 502.167 410.245 501.4C412.011 500.6 413.945 500.2 416.045 500.2C418.311 500.2 420.211 500.667 421.745 501.6C423.278 502.533 424.395 503.783 425.095 505.35C425.828 506.917 426.145 508.667 426.045 510.6C426.045 511.2 425.978 511.867 425.845 512.6C425.745 513.333 425.611 514 425.445 514.6H404.895L405.495 511.05H421.145C421.311 509.617 421.161 508.417 420.695 507.45C420.261 506.45 419.578 505.683 418.645 505.15C417.745 504.617 416.661 504.35 415.395 504.35C414.028 504.35 412.728 504.667 411.495 505.3C410.261 505.9 409.195 506.8 408.295 508C407.395 509.167 406.778 510.65 406.445 512.45L406.195 513.85C405.895 515.55 405.945 517.05 406.345 518.35C406.745 519.65 407.445 520.667 408.445 521.4C409.445 522.1 410.678 522.45 412.145 522.45C413.745 522.45 415.128 522.1 416.295 521.4C417.461 520.667 418.395 519.717 419.095 518.55H424.095C423.361 520.083 422.378 521.467 421.145 522.7C419.911 523.9 418.478 524.85 416.845 525.55C415.211 526.25 413.411 526.6 411.445 526.6ZM429.099 526L433.499 500.8H437.949L437.599 505.05C438.632 503.55 439.949 502.367 441.549 501.5C443.182 500.633 444.949 500.2 446.849 500.2C448.949 500.2 450.632 500.65 451.899 501.55C453.199 502.45 454.065 503.717 454.499 505.35C454.965 506.95 454.999 508.867 454.599 511.1L451.999 526H446.999L449.499 511.6C449.899 509.333 449.715 507.583 448.949 506.35C448.182 505.117 446.799 504.5 444.799 504.5C443.499 504.5 442.282 504.8 441.149 505.4C440.015 506 439.032 506.883 438.199 508.05C437.399 509.183 436.832 510.6 436.499 512.3L434.099 526H429.099ZM466.193 537.6C464.026 537.6 462.143 537.317 460.543 536.75C458.976 536.217 457.776 535.4 456.943 534.3C456.076 533.233 455.676 531.917 455.743 530.35C455.81 529.15 456.126 528.033 456.693 527C457.26 525.967 458.076 525.017 459.143 524.15C460.21 523.283 461.543 522.5 463.143 521.8L465.543 524C463.876 524.667 462.643 525.483 461.843 526.45C461.076 527.417 460.676 528.433 460.643 529.5C460.61 530.367 460.826 531.117 461.293 531.75C461.793 532.383 462.51 532.85 463.443 533.15C464.41 533.483 465.543 533.65 466.843 533.65C468.91 533.65 470.626 533.2 471.993 532.3C473.36 531.4 474.076 530.183 474.143 528.65C474.176 527.683 473.843 526.85 473.143 526.15C472.476 525.483 471.093 525.1 468.993 525C467.393 524.867 465.976 524.683 464.743 524.45C463.543 524.217 462.493 523.95 461.593 523.65C460.726 523.317 459.976 522.95 459.343 522.55C458.71 522.117 458.176 521.65 457.743 521.15L457.943 520L463.643 515.2L467.343 516.6L461.143 521.5L462.543 519.05C462.943 519.317 463.343 519.567 463.743 519.8C464.143 520.033 464.61 520.25 465.143 520.45C465.71 520.617 466.393 520.767 467.193 520.9C467.993 521.033 468.993 521.133 470.193 521.2C472.46 521.367 474.243 521.783 475.543 522.45C476.843 523.083 477.76 523.9 478.293 524.9C478.826 525.9 479.06 527.017 478.993 528.25C478.926 530.017 478.343 531.6 477.243 533C476.176 534.4 474.693 535.517 472.793 536.35C470.926 537.183 468.726 537.6 466.193 537.6ZM469.493 518.25C467.593 518.25 465.993 517.917 464.693 517.25C463.393 516.55 462.426 515.617 461.793 514.45C461.193 513.283 460.926 511.95 460.993 510.45C461.06 508.55 461.61 506.833 462.643 505.3C463.71 503.733 465.11 502.5 466.843 501.6C468.576 500.667 470.526 500.2 472.693 500.2C474.593 500.2 476.176 500.55 477.443 501.25C478.743 501.95 479.693 502.883 480.293 504.05C480.926 505.217 481.21 506.533 481.143 508C481.043 509.933 480.476 511.683 479.443 513.25C478.443 514.783 477.076 516 475.343 516.9C473.643 517.8 471.693 518.25 469.493 518.25ZM470.193 514.3C472.026 514.3 473.526 513.767 474.693 512.7C475.86 511.633 476.476 510.217 476.543 508.45C476.643 507.05 476.276 506 475.443 505.3C474.643 504.567 473.493 504.2 471.993 504.2C470.193 504.2 468.693 504.733 467.493 505.8C466.293 506.867 465.66 508.283 465.593 510.05C465.493 511.417 465.86 512.467 466.693 513.2C467.526 513.933 468.693 514.3 470.193 514.3ZM476.043 504.7L475.493 500.8H485.843L485.193 504.2L476.043 504.7ZM496.575 526C494.809 526 493.375 525.717 492.275 525.15C491.175 524.583 490.442 523.717 490.075 522.55C489.709 521.35 489.675 519.817 489.975 517.95L492.275 505.05H488.175L488.975 500.8H493.025L494.775 494.5H499.175L498.025 500.8H505.175L504.425 505.05H497.325L494.975 517.95C494.742 519.417 494.892 520.417 495.425 520.95C495.959 521.483 496.892 521.75 498.225 521.75H501.475L500.725 526H496.575ZM506.345 526L512.645 490H517.645L515.045 504.9C516.111 503.433 517.445 502.283 519.045 501.45C520.678 500.617 522.395 500.2 524.195 500.2C526.195 500.2 527.845 500.617 529.145 501.45C530.445 502.25 531.328 503.467 531.795 505.1C532.295 506.7 532.328 508.717 531.895 511.15L529.295 526H524.295L526.845 511.65C527.245 509.317 527.045 507.55 526.245 506.35C525.445 505.117 524.061 504.5 522.095 504.5C520.761 504.5 519.511 504.817 518.345 505.45C517.178 506.083 516.195 507.017 515.395 508.25C514.595 509.45 514.028 510.917 513.695 512.65L511.345 526H506.345ZM111.135 586L117.285 551H122.285L116.835 582.05H132.835L132.135 586H111.135ZM138.189 586L142.589 560.8H147.589L143.189 586H138.189ZM146.539 556.1C145.572 556.1 144.772 555.8 144.139 555.2C143.539 554.6 143.239 553.833 143.239 552.9C143.239 552 143.539 551.25 144.139 550.65C144.772 550.05 145.572 549.75 146.539 549.75C147.472 549.75 148.256 550.05 148.889 550.65C149.522 551.217 149.839 551.967 149.839 552.9C149.839 553.833 149.506 554.6 148.839 555.2C148.206 555.8 147.439 556.1 146.539 556.1ZM150.437 586L154.837 560.8H159.287L158.937 565.05C159.97 563.55 161.287 562.367 162.887 561.5C164.52 560.633 166.287 560.2 168.187 560.2C170.287 560.2 171.97 560.65 173.237 561.55C174.537 562.45 175.403 563.717 175.837 565.35C176.303 566.95 176.337 568.867 175.937 571.1L173.337 586H168.337L170.837 571.6C171.237 569.333 171.053 567.583 170.287 566.35C169.52 565.117 168.137 564.5 166.137 564.5C164.837 564.5 163.62 564.8 162.487 565.4C161.353 566 160.37 566.883 159.537 568.05C158.737 569.183 158.17 570.6 157.837 572.3L155.437 586H150.437ZM191.181 586.6C189.014 586.6 187.131 586.133 185.531 585.2C183.964 584.267 182.764 582.95 181.931 581.25C181.131 579.55 180.798 577.567 180.931 575.3C180.998 573.167 181.414 571.2 182.181 569.4C182.981 567.567 184.031 565.967 185.331 564.6C186.664 563.233 188.214 562.167 189.981 561.4C191.748 560.6 193.681 560.2 195.781 560.2C198.048 560.2 199.948 560.667 201.481 561.6C203.014 562.533 204.131 563.783 204.831 565.35C205.564 566.917 205.881 568.667 205.781 570.6C205.781 571.2 205.714 571.867 205.581 572.6C205.481 573.333 205.348 574 205.181 574.6H184.631L185.231 571.05H200.881C201.048 569.617 200.898 568.417 200.431 567.45C199.998 566.45 199.314 565.683 198.381 565.15C197.481 564.617 196.398 564.35 195.131 564.35C193.764 564.35 192.464 564.667 191.231 565.3C189.998 565.9 188.931 566.8 188.031 568C187.131 569.167 186.514 570.65 186.181 572.45L185.931 573.85C185.631 575.55 185.681 577.05 186.081 578.35C186.481 579.65 187.181 580.667 188.181 581.4C189.181 582.1 190.414 582.45 191.881 582.45C193.481 582.45 194.864 582.1 196.031 581.4C197.198 580.667 198.131 579.717 198.831 578.55H203.831C203.098 580.083 202.114 581.467 200.881 582.7C199.648 583.9 198.214 584.85 196.581 585.55C194.948 586.25 193.148 586.6 191.181 586.6ZM220.735 586.6C218.235 586.6 216.068 586.167 214.235 585.3C212.435 584.433 211.102 583.167 210.235 581.5C209.368 579.833 209.118 577.833 209.485 575.5H214.735C214.468 576.833 214.568 578.017 215.035 579.05C215.535 580.083 216.335 580.9 217.435 581.5C218.535 582.1 219.835 582.4 221.335 582.4C222.902 582.4 224.235 582.15 225.335 581.65C226.435 581.117 227.285 580.383 227.885 579.45C228.518 578.517 228.852 577.433 228.885 576.2C228.952 575.333 228.835 574.6 228.535 574C228.235 573.367 227.785 572.833 227.185 572.4C226.618 571.933 225.952 571.533 225.185 571.2C224.418 570.833 223.568 570.5 222.635 570.2C221.735 569.867 220.818 569.55 219.885 569.25C217.552 568.417 215.802 567.3 214.635 565.9C213.502 564.5 212.985 562.833 213.085 560.9C213.185 558.8 213.785 556.967 214.885 555.4C215.985 553.833 217.485 552.617 219.385 551.75C221.285 550.85 223.468 550.4 225.935 550.4C228.168 550.4 230.085 550.817 231.685 551.65C233.285 552.45 234.468 553.6 235.235 555.1C236.035 556.567 236.268 558.283 235.935 560.25H230.635C230.835 559.217 230.718 558.283 230.285 557.45C229.885 556.583 229.235 555.9 228.335 555.4C227.468 554.9 226.402 554.65 225.135 554.65C223.835 554.65 222.685 554.883 221.685 555.35C220.685 555.817 219.902 556.467 219.335 557.3C218.768 558.1 218.468 559.05 218.435 560.15C218.402 560.917 218.502 561.567 218.735 562.1C219.002 562.633 219.385 563.1 219.885 563.5C220.418 563.9 221.035 564.267 221.735 564.6C222.435 564.933 223.218 565.25 224.085 565.55C224.952 565.817 225.868 566.133 226.835 566.5C227.935 566.867 228.952 567.333 229.885 567.9C230.818 568.433 231.618 569.067 232.285 569.8C232.952 570.533 233.452 571.383 233.785 572.35C234.152 573.317 234.302 574.417 234.235 575.65C234.168 577.783 233.552 579.667 232.385 581.3C231.252 582.933 229.685 584.233 227.685 585.2C225.718 586.133 223.402 586.6 220.735 586.6ZM248.577 586C246.81 586 245.377 585.717 244.277 585.15C243.177 584.583 242.444 583.717 242.077 582.55C241.71 581.35 241.677 579.817 241.977 577.95L244.277 565.05H240.177L240.977 560.8H245.027L246.777 554.5H251.177L250.027 560.8H257.177L256.427 565.05H249.327L246.977 577.95C246.744 579.417 246.894 580.417 247.427 580.95C247.96 581.483 248.894 581.75 250.227 581.75H253.477L252.727 586H248.577ZM258.347 586L262.747 560.8H267.247L266.897 565.35C267.663 564.25 268.563 563.333 269.597 562.6C270.63 561.833 271.797 561.25 273.097 560.85C274.43 560.417 275.847 560.2 277.347 560.2L276.447 565.5H274.697C273.597 565.5 272.563 565.617 271.597 565.85C270.63 566.083 269.747 566.5 268.947 567.1C268.147 567.667 267.447 568.417 266.847 569.35C266.28 570.283 265.88 571.467 265.647 572.9L263.347 586H258.347ZM274.487 591.05L294.687 547.55H299.587L279.337 591.05H274.487ZM299.465 586L305.665 551H311.515L319.265 574.65L335.215 551H341.115L334.965 586H329.965L334.565 559.75L320.015 581.1H316.165L309.065 559.8L304.465 586H299.465ZM351.237 586.6C349.137 586.6 347.437 586.15 346.137 585.25C344.87 584.317 344.004 583.033 343.537 581.4C343.104 579.733 343.087 577.817 343.487 575.65L346.137 560.8H351.087L348.537 575.2C348.17 577.5 348.337 579.267 349.037 580.5C349.737 581.733 351.12 582.35 353.187 582.35C354.52 582.35 355.754 582.05 356.887 581.45C358.054 580.817 359.054 579.933 359.887 578.8C360.72 577.633 361.287 576.217 361.587 574.55L364.037 560.8H369.037L364.587 586H360.137L360.487 581.7C359.487 583.233 358.17 584.433 356.537 585.3C354.937 586.167 353.17 586.6 351.237 586.6ZM371.431 586L377.831 550H382.831L376.431 586H371.431ZM393.646 586C391.879 586 390.446 585.717 389.346 585.15C388.246 584.583 387.512 583.717 387.146 582.55C386.779 581.35 386.746 579.817 387.046 577.95L389.346 565.05H385.246L386.046 560.8H390.096L391.846 554.5H396.246L395.096 560.8H402.246L401.496 565.05H394.396L392.046 577.95C391.812 579.417 391.962 580.417 392.496 580.95C393.029 581.483 393.962 581.75 395.296 581.75H398.546L397.796 586H393.646ZM403.765 586L408.165 560.8H413.165L408.765 586H403.765ZM412.115 556.1C411.148 556.1 410.348 555.8 409.715 555.2C409.115 554.6 408.815 553.833 408.815 552.9C408.815 552 409.115 551.25 409.715 550.65C410.348 550.05 411.148 549.75 412.115 549.75C413.048 549.75 413.832 550.05 414.465 550.65C415.098 551.217 415.415 551.967 415.415 552.9C415.415 553.833 415.082 554.6 414.415 555.2C413.782 555.8 413.015 556.1 412.115 556.1ZM416.213 586L422.363 551H427.363L421.913 582.05H437.913L437.213 586H416.213ZM443.267 586L447.667 560.8H452.667L448.267 586H443.267ZM451.617 556.1C450.65 556.1 449.85 555.8 449.217 555.2C448.617 554.6 448.317 553.833 448.317 552.9C448.317 552 448.617 551.25 449.217 550.65C449.85 550.05 450.65 549.75 451.617 549.75C452.55 549.75 453.334 550.05 453.967 550.65C454.6 551.217 454.917 551.967 454.917 552.9C454.917 553.833 454.584 554.6 453.917 555.2C453.284 555.8 452.517 556.1 451.617 556.1ZM455.515 586L459.915 560.8H464.365L464.015 565.05C465.048 563.55 466.365 562.367 467.965 561.5C469.598 560.633 471.365 560.2 473.265 560.2C475.365 560.2 477.048 560.65 478.315 561.55C479.615 562.45 480.481 563.717 480.915 565.35C481.381 566.95 481.415 568.867 481.015 571.1L478.415 586H473.415L475.915 571.6C476.315 569.333 476.131 567.583 475.365 566.35C474.598 565.117 473.215 564.5 471.215 564.5C469.915 564.5 468.698 564.8 467.565 565.4C466.431 566 465.448 566.883 464.615 568.05C463.815 569.183 463.248 570.6 462.915 572.3L460.515 586H455.515ZM496.259 586.6C494.093 586.6 492.209 586.133 490.609 585.2C489.043 584.267 487.843 582.95 487.009 581.25C486.209 579.55 485.876 577.567 486.009 575.3C486.076 573.167 486.493 571.2 487.259 569.4C488.059 567.567 489.109 565.967 490.409 564.6C491.743 563.233 493.293 562.167 495.059 561.4C496.826 560.6 498.759 560.2 500.859 560.2C503.126 560.2 505.026 560.667 506.559 561.6C508.093 562.533 509.209 563.783 509.909 565.35C510.643 566.917 510.959 568.667 510.859 570.6C510.859 571.2 510.793 571.867 510.659 572.6C510.559 573.333 510.426 574 510.259 574.6H489.709L490.309 571.05H505.959C506.126 569.617 505.976 568.417 505.509 567.45C505.076 566.45 504.393 565.683 503.459 565.15C502.559 564.617 501.476 564.35 500.209 564.35C498.843 564.35 497.543 564.667 496.309 565.3C495.076 565.9 494.009 566.8 493.109 568C492.209 569.167 491.593 570.65 491.259 572.45L491.009 573.85C490.709 575.55 490.759 577.05 491.159 578.35C491.559 579.65 492.259 580.667 493.259 581.4C494.259 582.1 495.493 582.45 496.959 582.45C498.559 582.45 499.943 582.1 501.109 581.4C502.276 580.667 503.209 579.717 503.909 578.55H508.909C508.176 580.083 507.193 581.467 505.959 582.7C504.726 583.9 503.293 584.85 501.659 585.55C500.026 586.25 498.226 586.6 496.259 586.6ZM525.813 586.6C523.313 586.6 521.146 586.167 519.313 585.3C517.513 584.433 516.18 583.167 515.313 581.5C514.446 579.833 514.196 577.833 514.563 575.5H519.813C519.546 576.833 519.646 578.017 520.113 579.05C520.613 580.083 521.413 580.9 522.513 581.5C523.613 582.1 524.913 582.4 526.413 582.4C527.98 582.4 529.313 582.15 530.413 581.65C531.513 581.117 532.363 580.383 532.963 579.45C533.596 578.517 533.93 577.433 533.963 576.2C534.03 575.333 533.913 574.6 533.613 574C533.313 573.367 532.863 572.833 532.263 572.4C531.696 571.933 531.03 571.533 530.263 571.2C529.496 570.833 528.646 570.5 527.713 570.2C526.813 569.867 525.896 569.55 524.963 569.25C522.63 568.417 520.88 567.3 519.713 565.9C518.58 564.5 518.063 562.833 518.163 560.9C518.263 558.8 518.863 556.967 519.963 555.4C521.063 553.833 522.563 552.617 524.463 551.75C526.363 550.85 528.546 550.4 531.013 550.4C533.246 550.4 535.163 550.817 536.763 551.65C538.363 552.45 539.546 553.6 540.313 555.1C541.113 556.567 541.346 558.283 541.013 560.25H535.713C535.913 559.217 535.796 558.283 535.363 557.45C534.963 556.583 534.313 555.9 533.413 555.4C532.546 554.9 531.48 554.65 530.213 554.65C528.913 554.65 527.763 554.883 526.763 555.35C525.763 555.817 524.98 556.467 524.413 557.3C523.846 558.1 523.546 559.05 523.513 560.15C523.48 560.917 523.58 561.567 523.813 562.1C524.08 562.633 524.463 563.1 524.963 563.5C525.496 563.9 526.113 564.267 526.813 564.6C527.513 564.933 528.296 565.25 529.163 565.55C530.03 565.817 530.946 566.133 531.913 566.5C533.013 566.867 534.03 567.333 534.963 567.9C535.896 568.433 536.696 569.067 537.363 569.8C538.03 570.533 538.53 571.383 538.863 572.35C539.23 573.317 539.38 574.417 539.313 575.65C539.246 577.783 538.63 579.667 537.463 581.3C536.33 582.933 534.763 584.233 532.763 585.2C530.796 586.133 528.48 586.6 525.813 586.6ZM553.655 586C551.889 586 550.455 585.717 549.355 585.15C548.255 584.583 547.522 583.717 547.155 582.55C546.789 581.35 546.755 579.817 547.055 577.95L549.355 565.05H545.255L546.055 560.8H550.105L551.855 554.5H556.255L555.105 560.8H562.255L561.505 565.05H554.405L552.055 577.95C551.822 579.417 551.972 580.417 552.505 580.95C553.039 581.483 553.972 581.75 555.305 581.75H558.555L557.805 586H553.655ZM563.425 586L567.825 560.8H572.325L571.975 565.35C572.741 564.25 573.641 563.333 574.675 562.6C575.708 561.833 576.875 561.25 578.175 560.85C579.508 560.417 580.925 560.2 582.425 560.2L581.525 565.5H579.775C578.675 565.5 577.641 565.617 576.675 565.85C575.708 566.083 574.825 566.5 574.025 567.1C573.225 567.667 572.525 568.417 571.925 569.35C571.358 570.283 570.958 571.467 570.725 572.9L568.425 586H563.425Z" fill="black"/>
</svg>
